<svg data-v-423bf9ae="" xmlns="http://www.w3.org/2000/svg" viewBox="0 0 2431.5162797590806 193" class="fontAboveSlogan"><!----><!----><!----><g data-v-423bf9ae="" id="673c79cc-5b16-4870-bb3b-6d6ded75bd10" fill="#000000" transform="matrix(10.752687400194272,0,0,10.752687400194272,798.0666816281575,-14.65376355826126)"><path d="M8.50 11.21L8.50 11.21Q8.64 11.44 8.64 11.68L8.64 11.68L8.64 11.68Q8.64 11.96 8.45 12.14L8.45 12.14L8.45 12.14Q8.26 12.33 7.94 12.33L7.94 12.33L7.94 12.33Q7.53 12.33 7.31 11.98L7.31 11.98L4.90 8.12L4.65 8.12L2.86 8.12L2.86 11.61L2.86 11.61Q2.86 11.91 2.65 12.12L2.65 12.12L2.65 12.12Q2.45 12.33 2.13 12.33L2.13 12.33L2.13 12.33Q1.82 12.33 1.61 12.12L1.61 12.12L1.61 12.12Q1.40 11.91 1.40 11.61L1.40 11.61L1.40 2.13L1.40 2.13Q1.40 1.81 1.61 1.60L1.61 1.60L1.61 1.60Q1.82 1.40 2.13 1.40L2.13 1.40L4.65 1.40L4.65 1.40Q5.68 1.40 6.50 1.83L6.50 1.83L6.50 1.83Q7.32 2.27 7.78 3.05L7.78 3.05L7.78 3.05Q8.23 3.84 8.23 4.84L8.23 4.84L8.23 4.84Q8.23 5.84 7.73 6.61L7.73 6.61L7.73 6.61Q7.22 7.38 6.36 7.77L6.36 7.77L8.50 11.21ZM2.86 6.78L4.65 6.78L4.65 6.78Q5.60 6.78 6.22 6.24L6.22 6.24L6.22 6.24Q6.83 5.70 6.83 4.84L6.83 4.84L6.83 4.84Q6.83 3.92 6.22 3.33L6.22 3.33L6.22 3.33Q5.60 2.74 4.65 2.74L4.65 2.74L2.86 2.74L2.86 6.78ZM10.51 10.61L10.51 10.61Q10.91 10.61 11.19 10.90L11.19 10.90L11.19 10.90Q11.48 11.19 11.48 11.59L11.48 11.59L11.48 11.59Q11.48 11.98 11.20 12.27L11.20 12.27L11.20 12.27Q10.92 12.56 10.51 12.56L10.51 12.56L10.51 12.56Q10.12 12.56 9.84 12.27L9.84 12.27L9.84 12.27Q9.55 11.98 9.55 11.59L9.55 11.59L9.55 11.59Q9.55 11.19 9.84 10.90L9.84 10.90L9.84 10.90Q10.12 10.61 10.51 10.61L10.51 10.61ZM25.06 2.13L25.06 2.13Q25.06 1.81 25.27 1.60L25.27 1.60L25.27 1.60Q25.48 1.40 25.79 1.40L25.79 1.40L25.79 1.40Q26.10 1.40 26.30 1.60L26.30 1.60L26.30 1.60Q26.50 1.81 26.50 2.13L26.50 2.13L26.50 11.61L26.50 11.61Q26.50 11.93 26.30 12.13L26.30 12.13L26.30 12.13Q26.10 12.33 25.79 12.33L25.79 12.33L25.79 12.33Q25.63 12.33 25.47 12.27L25.47 12.27L25.47 12.27Q25.31 12.21 25.23 12.08L25.23 12.08L19.12 3.96L19.12 11.61L19.12 11.61Q19.12 11.91 18.92 12.12L18.92 12.12L18.92 12.12Q18.72 12.33 18.40 12.33L18.40 12.33L18.40 12.33Q18.09 12.33 17.89 12.13L17.89 12.13L17.89 12.13Q17.68 11.93 17.68 11.61L17.68 11.61L17.68 2.13L17.68 2.13Q17.68 1.81 17.89 1.60L17.89 1.60L17.89 1.60Q18.09 1.40 18.40 1.40L18.40 1.40L18.40 1.40Q18.55 1.40 18.70 1.48L18.70 1.48L18.70 1.48Q18.86 1.55 18.96 1.67L18.96 1.67L25.06 9.79L25.06 2.13ZM32.63 4.62L32.63 4.62Q33.74 4.62 34.62 5.12L34.62 5.12L34.62 5.12Q35.49 5.61 35.99 6.50L35.99 6.50L35.99 6.50Q36.48 7.38 36.48 8.51L36.48 8.51L36.48 8.51Q36.48 9.63 35.99 10.51L35.99 10.51L35.99 10.51Q35.50 11.40 34.63 11.89L34.63 11.89L34.63 11.89Q33.75 12.39 32.63 12.39L32.63 12.39L32.63 12.39Q31.51 12.39 30.63 11.89L30.63 11.89L30.63 11.89Q29.75 11.40 29.26 10.51L29.26 10.51L29.26 10.51Q28.77 9.63 28.77 8.51L28.77 8.51L28.77 8.51Q28.77 7.38 29.26 6.50L29.26 6.50L29.26 6.50Q29.75 5.61 30.63 5.12L30.63 5.12L30.63 5.12Q31.51 4.62 32.63 4.62L32.63 4.62ZM32.63 5.88L32.63 5.88Q31.92 5.88 31.35 6.22L31.35 6.22L31.35 6.22Q30.79 6.55 30.46 7.15L30.46 7.15L30.46 7.15Q30.14 7.76 30.14 8.51L30.14 8.51L30.14 8.51Q30.14 9.27 30.46 9.86L30.46 9.86L30.46 9.86Q30.79 10.46 31.35 10.79L31.35 10.79L31.35 10.79Q31.92 11.13 32.63 11.13L32.63 11.13L32.63 11.13Q33.35 11.13 33.91 10.79L33.91 10.79L33.91 10.79Q34.48 10.46 34.80 9.86L34.80 9.86L34.80 9.86Q35.11 9.27 35.11 8.51L35.11 8.51L35.11 8.51Q35.11 7.76 34.80 7.15L34.80 7.15L34.80 7.15Q34.48 6.55 33.91 6.22L33.91 6.22L33.91 6.22Q33.35 5.88 32.63 5.88L32.63 5.88ZM46.75 4.68L46.75 4.68Q47.04 4.68 47.19 4.83L47.19 4.83L47.19 4.83Q47.33 4.98 47.33 5.25L47.33 5.25L47.33 5.25Q47.33 5.47 47.26 5.66L47.26 5.66L45.19 11.87L45.19 11.87Q45.12 12.07 44.94 12.20L44.94 12.20L44.94 12.20Q44.76 12.33 44.53 12.33L44.53 12.33L44.53 12.33Q44.30 12.33 44.11 12.20L44.11 12.20L44.11 12.20Q43.92 12.07 43.86 11.87L43.86 11.87L42.49 6.79L41.05 11.87L41.05 11.87Q40.98 12.07 40.79 12.20L40.79 12.20L40.79 12.20Q40.60 12.33 40.38 12.33L40.38 12.33L40.38 12.33Q40.15 12.33 39.96 12.20L39.96 12.20L39.96 12.20Q39.77 12.07 39.70 11.87L39.70 11.87L37.63 5.66L37.63 5.66Q37.58 5.47 37.58 5.26L37.58 5.26L37.58 5.26Q37.58 4.68 38.16 4.68L38.16 4.68L38.16 4.68Q38.43 4.68 38.61 4.83L38.61 4.83L38.61 4.83Q38.78 4.98 38.89 5.32L38.89 5.32L40.40 10.04L41.83 5.21L41.83 5.21Q41.90 4.97 42.08 4.82L42.08 4.82L42.08 4.82Q42.25 4.68 42.53 4.68L42.53 4.68L42.53 4.68Q42.80 4.68 42.97 4.82L42.97 4.82L42.97 4.82Q43.15 4.97 43.22 5.21L43.22 5.21L44.48 10.14L46.02 5.32L46.02 5.32Q46.21 4.68 46.75 4.68L46.75 4.68ZM52.28 4.62L52.28 4.62Q53.35 4.62 54.23 5.13L54.23 5.13L54.23 5.13Q55.10 5.64 55.62 6.53L55.62 6.53L55.62 6.53Q56.13 7.42 56.13 8.51L56.13 8.51L56.13 11.63L56.13 11.63Q56.13 11.94 55.92 12.14L55.92 12.14L55.92 12.14Q55.72 12.35 55.41 12.35L55.41 12.35L55.41 12.35Q55.10 12.35 54.90 12.14L54.90 12.14L54.90 12.14Q54.70 11.94 54.70 11.63L54.70 11.63L54.70 11.12L54.70 11.12Q54.21 11.72 53.51 12.05L53.51 12.05L53.51 12.05Q52.81 12.39 52.00 12.39L52.00 12.39L52.00 12.39Q50.99 12.39 50.17 11.89L50.17 11.89L50.17 11.89Q49.35 11.38 48.88 10.49L48.88 10.49L48.88 10.49Q48.41 9.60 48.41 8.51L48.41 8.51L48.41 8.51Q48.41 7.42 48.92 6.53L48.92 6.53L48.92 6.53Q49.42 5.64 50.31 5.13L50.31 5.13L50.31 5.13Q51.20 4.62 52.28 4.62L52.28 4.62ZM52.28 11.13L52.28 11.13Q52.98 11.13 53.54 10.79L53.54 10.79L53.54 10.79Q54.11 10.44 54.43 9.85L54.43 9.85L54.43 9.85Q54.75 9.25 54.75 8.51L54.75 8.51L54.75 8.51Q54.75 7.77 54.43 7.17L54.43 7.17L54.43 7.17Q54.11 6.57 53.54 6.22L53.54 6.22L53.54 6.22Q52.98 5.88 52.28 5.88L52.28 5.88L52.28 5.88Q51.58 5.88 51.01 6.22L51.01 6.22L51.01 6.22Q50.44 6.57 50.11 7.17L50.11 7.17L50.11 7.17Q49.78 7.77 49.78 8.51L49.78 8.51L49.78 8.51Q49.78 9.25 50.11 9.85L50.11 9.85L50.11 9.85Q50.44 10.44 51.01 10.79L51.01 10.79L51.01 10.79Q51.58 11.13 52.28 11.13L52.28 11.13ZM61.66 4.62L61.66 4.62Q63.31 4.62 64.40 5.88L64.40 5.88L64.40 5.88Q64.54 6.03 64.54 6.24L64.54 6.24L64.54 6.24Q64.54 6.55 64.23 6.76L64.23 6.76L64.23 6.76Q64.09 6.86 63.91 6.86L63.91 6.86L63.91 6.86Q63.59 6.86 63.36 6.61L63.36 6.61L63.36 6.61Q63.01 6.23 62.60 6.05L62.60 6.05L62.60 6.05Q62.19 5.88 61.66 5.88L61.66 5.88L61.66 5.88Q60.58 5.88 59.91 6.60L59.91 6.60L59.91 6.60Q59.23 7.32 59.23 8.51L59.23 8.51L59.23 8.51Q59.23 9.27 59.55 9.86L59.55 9.86L59.55 9.86Q59.86 10.46 60.43 10.79L60.43 10.79L60.43 10.79Q61.00 11.13 61.73 11.13L61.73 11.13L61.73 11.13Q62.68 11.13 63.27 10.64L63.27 10.64L63.27 10.64Q63.53 10.44 63.78 10.44L63.78 10.44L63.78 10.44Q63.98 10.44 64.15 10.57L64.15 10.57L64.15 10.57Q64.41 10.79 64.41 11.07L64.41 11.07L64.41 11.07Q64.41 11.28 64.25 11.45L64.25 11.45L64.25 11.45Q63.24 12.39 61.73 12.39L61.73 12.39L61.73 12.39Q60.62 12.39 59.74 11.89L59.74 11.89L59.74 11.89Q58.86 11.38 58.36 10.49L58.36 10.49L58.36 10.49Q57.86 9.60 57.86 8.51L57.86 8.51L57.86 8.51Q57.86 7.39 58.35 6.50L58.35 6.50L58.35 6.50Q58.83 5.61 59.70 5.12L59.70 5.12L59.70 5.12Q60.56 4.62 61.66 4.62L61.66 4.62ZM72.45 11.33L72.45 11.33Q72.60 11.49 72.60 11.75L72.60 11.75L72.60 11.75Q72.60 12.05 72.35 12.26L72.35 12.26L72.35 12.26Q72.14 12.43 71.90 12.43L71.90 12.43L71.90 12.43Q71.60 12.43 71.40 12.18L71.40 12.18L68.74 8.89L68.04 9.51L68.04 11.65L68.04 11.65Q68.04 11.96 67.85 12.14L67.85 12.14L67.85 12.14Q67.66 12.33 67.35 12.33L67.35 12.33L67.35 12.33Q67.05 12.33 66.86 12.14L66.86 12.14L66.86 12.14Q66.67 11.96 66.67 11.65L66.67 11.65L66.67 2.09L66.67 2.09Q66.67 1.78 66.86 1.59L66.86 1.59L66.86 1.59Q67.05 1.40 67.35 1.40L67.35 1.40L67.35 1.40Q67.66 1.40 67.85 1.59L67.85 1.59L67.85 1.59Q68.04 1.78 68.04 2.09L68.04 2.09L68.04 7.78L71.44 4.75L71.44 4.75Q71.62 4.56 71.88 4.56L71.88 4.56L71.88 4.56Q72.17 4.56 72.35 4.79L72.35 4.79L72.35 4.79Q72.53 4.97 72.53 5.22L72.53 5.22L72.53 5.22Q72.53 5.52 72.31 5.70L72.31 5.70L69.73 7.99L72.45 11.33ZM74.77 5.39L74.77 5.39Q74.77 5.07 74.98 4.87L74.98 4.87L74.98 4.87Q75.18 4.68 75.49 4.68L75.49 4.68L75.49 4.68Q75.81 4.68 76.01 4.87L76.01 4.87L76.01 4.87Q76.20 5.07 76.20 5.39L76.20 5.39L76.20 11.62L76.20 11.62Q76.20 11.93 76.01 12.13L76.01 12.13L76.01 12.13Q75.81 12.33 75.49 12.33L75.49 12.33L75.49 12.33Q75.18 12.33 74.98 12.13L74.98 12.13L74.98 12.13Q74.77 11.93 74.77 11.62L74.77 11.62L74.77 5.39ZM75.49 1.58L75.49 1.58Q75.87 1.58 76.14 1.85L76.14 1.85L76.14 1.85Q76.41 2.13 76.41 2.51L76.41 2.51L76.41 2.51Q76.41 2.88 76.14 3.16L76.14 3.16L76.14 3.16Q75.87 3.43 75.49 3.43L75.49 3.43L75.49 3.43Q75.11 3.43 74.84 3.16L74.84 3.16L74.84 3.16Q74.56 2.88 74.56 2.51L74.56 2.51L74.56 2.51Q74.56 2.13 74.84 1.85L74.84 1.85L74.84 1.85Q75.11 1.58 75.49 1.58L75.49 1.58Z"></path></g><!----><!----><g data-v-423bf9ae="" id="1a1ee551-80d7-488c-81bc-64e4e2c4cb39" fill="#000000" transform="matrix(5.946481575088099,0,0,5.946481575088099,-2.675905431662841,115.75519571258647)"><path d="M0.45 12.46C0.45 12.63 0.46 12.70 0.64 12.70C0.80 12.70 2.03 12.64 2.42 12.64C3.28 12.64 4.16 12.70 5.01 12.70C7.63 12.70 10.02 11.07 10.02 7.91C10.02 4.89 7.69 3.07 4.65 3.07C4.09 3.07 2.83 3.23 1.79 3.23C1.32 3.23 0.85 3.22 0.80 3.22C0.62 3.22 0.60 3.32 0.60 3.49C0.60 3.68 0.67 3.70 0.80 3.70L1.76 3.67C1.79 3.67 1.79 4.20 1.79 4.72C1.79 5.91 1.71 12.21 1.62 12.21L0.73 12.21C0.55 12.21 0.45 12.22 0.45 12.46ZM3.02 11.40C3.02 9.46 3.02 7.52 3.04 5.60C3.04 5.03 3.08 3.61 3.12 3.60C3.42 3.53 4.00 3.51 4.35 3.51C6.92 3.51 8.53 5.75 8.53 7.73C8.53 8.95 8.48 12.25 3.81 12.25C3.54 12.25 3.14 12.25 3.04 12.21C3.02 12.19 3.02 11.79 3.02 11.40ZM18.13 12.39C18.13 12.63 18.16 12.68 18.35 12.68C18.68 12.68 19.64 12.64 20.06 12.64C20.48 12.64 24.99 12.68 25.31 12.68C25.44 12.68 25.59 12.66 25.59 12.49C25.59 12.07 25.63 11.23 25.63 10.53C25.63 10.39 25.48 10.39 25.35 10.39C25.24 10.39 25.12 10.39 25.12 10.51C25.10 11.06 25.10 11.41 25.07 11.76C25.05 12.01 25.05 12.04 24.95 12.04C24.79 12.04 22.16 12.08 20.66 12.08C20.59 12.08 20.55 10.11 20.51 8.26C20.51 8.06 20.55 8.09 20.69 8.09L22.97 8.09C23.67 8.09 23.70 8.20 23.70 8.30L23.70 9.00C23.70 9.14 23.88 9.14 24.00 9.14C24.09 9.14 24.22 9.13 24.22 9.02C24.22 8.83 24.19 8.33 24.19 7.83C24.19 7.32 24.22 6.83 24.22 6.71C24.22 6.59 24.08 6.58 23.98 6.58C23.87 6.58 23.70 6.59 23.70 6.72L23.70 7.45C23.70 7.62 23.25 7.63 22.97 7.63L20.64 7.63C20.52 7.63 20.51 7.63 20.51 7.45C20.50 6.75 20.48 6.06 20.48 5.46C20.48 5.12 20.48 3.71 20.57 3.71C21.80 3.71 24.30 3.75 24.30 3.81C24.30 3.99 24.26 4.83 24.26 4.89C24.26 5.04 24.33 5.10 24.51 5.10C24.71 5.10 24.78 5.08 24.78 4.94C24.78 3.85 24.84 3.36 24.84 3.09C24.84 2.91 24.75 2.90 24.56 2.90C24.36 2.90 24.36 2.95 24.33 3.11C24.32 3.25 24.39 3.25 23.48 3.25C22.86 3.25 20.72 3.29 19.95 3.29C19.46 3.29 18.52 3.25 18.42 3.25C18.30 3.25 18.24 3.30 18.24 3.49C18.24 3.72 18.31 3.74 18.48 3.74L19.14 3.74C19.19 3.74 19.26 4.79 19.26 5.71C19.26 5.80 19.32 8.27 19.32 9.83L19.32 11.17C19.32 11.84 19.29 12.18 19.26 12.18L18.41 12.18C18.19 12.18 18.13 12.21 18.13 12.39ZM33.18 3.51C33.18 3.75 33.28 3.77 33.45 3.77L33.88 3.77C33.96 3.77 36.75 10.99 36.79 11.07C37.28 12.18 37.38 12.99 37.59 12.99C37.86 12.99 37.91 12.67 38.19 12.26C38.35 12.04 38.43 12.01 38.58 11.66L41.82 4.06C41.93 3.81 41.92 3.77 42.28 3.77C42.50 3.77 42.57 3.75 42.57 3.56C42.57 3.32 42.53 3.26 42.34 3.26C42.20 3.26 41.66 3.30 41.24 3.30C40.82 3.30 40.00 3.26 39.77 3.26C39.58 3.26 39.52 3.29 39.52 3.51C39.52 3.75 39.65 3.77 39.82 3.77L40.81 3.77C40.88 3.77 40.89 3.81 40.89 3.95C40.89 4.63 39.21 8.72 38.49 10.63C38.35 10.99 38.26 11.17 38.22 11.17C38.18 11.17 38.08 10.98 37.94 10.60C37.37 9.10 36.23 6.01 35.71 4.49C35.63 4.27 35.55 3.93 35.55 3.79L35.55 3.77L36.53 3.77C36.75 3.77 36.82 3.75 36.82 3.56C36.82 3.32 36.78 3.26 36.58 3.26C36.26 3.26 35.18 3.30 34.76 3.30C34.34 3.30 33.63 3.26 33.45 3.26C33.26 3.26 33.18 3.28 33.18 3.51ZM50.19 12.39C50.19 12.63 50.22 12.68 50.41 12.68C50.74 12.68 51.70 12.64 52.12 12.64C52.54 12.64 57.05 12.68 57.37 12.68C57.50 12.68 57.65 12.66 57.65 12.49C57.65 12.07 57.69 11.23 57.69 10.53C57.69 10.39 57.54 10.39 57.41 10.39C57.30 10.39 57.18 10.39 57.18 10.51C57.16 11.06 57.16 11.41 57.13 11.76C57.11 12.01 57.11 12.04 57.01 12.04C56.85 12.04 54.22 12.08 52.72 12.08C52.65 12.08 52.61 10.11 52.57 8.26C52.57 8.06 52.61 8.09 52.75 8.09L55.03 8.09C55.73 8.09 55.76 8.20 55.76 8.30L55.76 9.00C55.76 9.14 55.94 9.14 56.06 9.14C56.15 9.14 56.28 9.13 56.28 9.02C56.28 8.83 56.25 8.33 56.25 7.83C56.25 7.32 56.28 6.83 56.28 6.71C56.28 6.59 56.14 6.58 56.04 6.58C55.93 6.58 55.76 6.59 55.76 6.72L55.76 7.45C55.76 7.62 55.31 7.63 55.03 7.63L52.70 7.63C52.58 7.63 52.57 7.63 52.57 7.45C52.56 6.75 52.54 6.06 52.54 5.46C52.54 5.12 52.54 3.71 52.63 3.71C53.86 3.71 56.36 3.75 56.36 3.81C56.36 3.99 56.32 4.83 56.32 4.89C56.32 5.04 56.39 5.10 56.57 5.10C56.77 5.10 56.84 5.08 56.84 4.94C56.84 3.85 56.90 3.36 56.90 3.09C56.90 2.91 56.81 2.90 56.62 2.90C56.42 2.90 56.42 2.95 56.39 3.11C56.38 3.25 56.45 3.25 55.54 3.25C54.92 3.25 52.78 3.29 52.01 3.29C51.52 3.29 50.58 3.25 50.48 3.25C50.36 3.25 50.30 3.30 50.30 3.49C50.30 3.72 50.37 3.74 50.54 3.74L51.20 3.74C51.25 3.74 51.32 4.79 51.32 5.71C51.32 5.80 51.38 8.27 51.38 9.83L51.38 11.17C51.38 11.84 51.35 12.18 51.32 12.18L50.47 12.18C50.25 12.18 50.19 12.21 50.19 12.39ZM65.66 12.39C65.66 12.63 65.69 12.68 65.88 12.68C66.21 12.68 67.17 12.64 67.59 12.64C68.01 12.64 72.37 12.68 72.69 12.68C72.95 12.68 73.02 12.66 73.04 12.49C73.09 12.08 73.33 10.72 73.33 10.60C73.33 10.47 73.18 10.44 73.01 10.43C72.91 10.42 72.83 10.46 72.81 10.56L72.65 11.76C72.60 12.05 72.59 12.03 72.37 12.04C72.21 12.05 69.71 12.12 68.28 12.12C68.24 12.12 68.19 11.38 68.19 10.54L68.19 6.66C68.19 5.40 68.21 3.70 68.31 3.70L69.29 3.70C69.52 3.70 69.55 3.63 69.55 3.44C69.55 3.23 69.54 3.19 69.30 3.19C68.98 3.19 68.04 3.23 67.62 3.23C67.20 3.23 66.26 3.19 66.04 3.19C65.81 3.19 65.76 3.22 65.76 3.44C65.76 3.65 65.80 3.70 66.00 3.70L66.82 3.70C66.86 3.70 66.89 4.23 66.89 4.90L66.89 8.13C66.89 10.07 66.86 12.18 66.78 12.18L65.94 12.18C65.72 12.18 65.66 12.21 65.66 12.39ZM80.88 8.15C80.88 11.17 83.22 12.80 85.47 12.80C88.26 12.80 90.23 10.89 90.23 8.06C90.23 5.33 88.48 3.11 85.68 3.11C83.08 3.11 80.88 5.10 80.88 8.15ZM82.28 7.77C82.28 5.64 83.57 3.58 85.54 3.58C87.78 3.58 88.86 5.81 88.86 7.94C88.86 10.08 87.75 12.32 85.48 12.32C83.50 12.32 82.28 10.28 82.28 7.77ZM98.34 3.51C98.34 3.75 98.38 3.79 98.59 3.79L99.51 3.77C99.57 3.77 99.57 4.47 99.57 5.24L99.57 5.96C99.57 7.70 99.55 12.18 99.44 12.18L98.77 12.18C98.55 12.18 98.48 12.19 98.48 12.39C98.48 12.63 98.49 12.68 98.69 12.68C98.81 12.68 99.79 12.64 100.21 12.64C100.63 12.64 101.50 12.68 101.82 12.68C101.99 12.68 102.02 12.61 102.02 12.40C102.02 12.24 101.99 12.18 101.82 12.18L100.83 12.18C100.79 12.18 100.77 10.60 100.77 9.58L100.77 8.65C100.77 8.57 100.77 8.54 100.87 8.54C101.26 8.54 101.58 8.58 102.09 8.58C104.08 8.58 105.48 7.83 105.48 6.01C105.48 4.09 103.99 3.22 102.07 3.22C101.75 3.22 100.66 3.29 100.24 3.29C100.00 3.29 98.81 3.26 98.59 3.26C98.41 3.26 98.34 3.28 98.34 3.51ZM100.79 8.05L100.79 4.40C100.79 4.05 100.80 3.70 100.84 3.68C100.97 3.67 101.14 3.67 101.28 3.67C102.93 3.67 104.19 4.47 104.19 5.80C104.19 7.57 102.86 8.19 101.28 8.19C101.02 8.19 100.79 8.16 100.79 8.05ZM113.09 12.39C113.09 12.63 113.13 12.68 113.33 12.68C113.65 12.68 114.41 12.64 115.12 12.64C115.78 12.64 116.58 12.68 116.80 12.68C116.97 12.68 117.00 12.61 117.00 12.40C117.00 12.24 116.97 12.18 116.80 12.18L115.84 12.18C115.74 12.18 115.71 9.55 115.71 7.76L115.71 5.87C115.71 5.14 115.74 3.70 115.84 3.70L116.75 3.70C116.97 3.70 117.00 3.68 117.00 3.49C117.00 3.25 116.97 3.19 116.80 3.19C116.48 3.19 115.81 3.23 115.15 3.23C114.34 3.23 113.62 3.19 113.40 3.19C113.22 3.19 113.15 3.21 113.15 3.44C113.15 3.68 113.23 3.70 113.40 3.70L114.32 3.70C114.37 3.70 114.44 4.79 114.44 5.71L114.44 7.08C114.44 8.92 114.42 12.18 114.31 12.18L113.39 12.18C113.16 12.18 113.09 12.19 113.09 12.39ZM124.89 12.39C124.89 12.63 124.91 12.68 125.10 12.68C125.29 12.68 125.66 12.64 126.28 12.64C126.91 12.64 127.47 12.68 127.79 12.68C127.96 12.68 127.96 12.61 127.96 12.40C127.96 12.24 127.96 12.18 127.79 12.18L126.59 12.18C126.55 12.18 126.53 11.54 126.53 10.79C126.53 9.46 126.55 7.48 126.55 5.99C126.55 5.25 126.55 4.84 126.56 4.28C126.56 4.02 126.63 4.14 126.76 4.28L133.64 12.66C133.73 12.75 133.81 12.89 133.92 12.89C134.04 12.89 134.11 12.77 134.11 12.54C134.11 12.39 134.27 6.65 134.29 4.48C134.29 4.06 134.32 3.70 134.34 3.70L134.97 3.70C135.20 3.70 135.25 3.68 135.25 3.49C135.25 3.25 135.25 3.19 135.06 3.19C134.86 3.19 134.43 3.23 133.87 3.23C133.25 3.23 132.45 3.19 132.36 3.19C132.19 3.19 132.19 3.26 132.19 3.47C132.19 3.64 132.19 3.70 132.36 3.70L133.66 3.70C133.67 3.70 133.67 4.33 133.67 4.44C133.67 5.85 133.70 8.33 133.70 9.70L133.70 10.29C133.70 10.57 133.69 10.65 133.46 10.37L127.78 3.39C127.67 3.25 127.64 3.19 127.47 3.19C127.39 3.19 127.01 3.23 126.70 3.23C126.41 3.23 125.33 3.19 125.13 3.19C124.96 3.19 124.94 3.26 124.94 3.47C124.94 3.64 124.96 3.70 125.13 3.70L126.04 3.70C126.04 4.17 126 8.53 125.93 10.79C125.90 11.69 125.92 12.18 125.80 12.18L125.16 12.18C124.94 12.18 124.89 12.19 124.89 12.39ZM143.36 7.91C143.36 11.40 145.73 12.89 148.32 12.89C150.21 12.89 152.21 11.89 152.21 11.58C152.21 11.12 152.22 10.68 152.22 10.33C152.22 9.81 152.24 9.56 152.36 9.56L152.80 9.56C152.94 9.56 152.95 9.39 152.95 9.30C152.95 9.18 152.94 9.06 152.80 9.06C152.57 9.06 152.21 9.10 151.54 9.10C151.09 9.10 150.35 9.07 149.66 9.06C149.52 9.06 149.52 9.24 149.52 9.35C149.52 9.45 149.55 9.56 149.67 9.56L150.89 9.56C150.93 9.56 150.99 9.87 150.99 10.33C150.99 10.82 150.98 11.41 150.95 11.65C150.93 11.76 150.29 12.39 148.71 12.39C146.47 12.39 144.87 10.29 144.87 7.94C144.87 5.42 146.43 3.54 148.43 3.54C150.32 3.54 151.49 4.87 151.49 5.03C151.49 5.15 151.44 6.12 151.44 6.17C151.44 6.31 151.48 6.36 151.75 6.36C151.94 6.36 152.01 6.33 152.01 6.15C152.01 5.43 152.05 3.75 152.05 3.56C152.05 3.36 151.96 3.33 151.75 3.33C151.52 3.33 151.49 3.39 151.49 3.56L151.49 3.91C151.49 3.99 151.45 4.02 151.33 3.92C151.05 3.72 150.05 3.08 148.48 3.08C145.64 3.08 143.36 4.79 143.36 7.91ZM170.79 3.51C170.79 3.75 170.87 3.79 171.04 3.79L171.89 3.77C171.95 3.77 172.00 5.52 172.00 7.11L172.00 11.63C172.00 11.93 171.99 12.18 171.96 12.18L171.23 12.18C171.01 12.18 170.94 12.19 170.94 12.39C170.94 12.63 170.97 12.68 171.16 12.68C171.29 12.68 172.24 12.64 172.66 12.64C172.84 12.64 173.36 12.67 174.01 12.67C175.56 12.67 177.97 12.43 177.97 10.23C177.97 8.27 176.15 7.94 175.46 7.84C175.38 7.83 175.36 7.83 175.36 7.81C175.36 7.80 175.41 7.78 175.48 7.76C176.12 7.52 177.56 6.90 177.56 5.54C177.56 3.81 176.09 3.25 174.41 3.25C173.84 3.25 173.24 3.29 172.69 3.29C172.27 3.29 171.26 3.26 171.04 3.26C170.86 3.26 170.79 3.28 170.79 3.51ZM173.24 8.19C173.24 8.12 173.24 8.08 173.35 8.08L173.82 8.08C174.44 8.08 175.08 8.09 175.46 8.22C176.33 8.51 176.65 9.16 176.65 10.14C176.65 11.17 176.19 12.18 174.17 12.18L173.33 12.18C173.25 12.18 173.24 9.02 173.24 8.19ZM173.24 7.59L173.24 6.92C173.24 5.87 173.25 3.71 173.29 3.68C173.35 3.65 173.66 3.63 173.87 3.63C175.28 3.63 176.30 4.41 176.30 5.77C176.30 6.92 175.57 7.46 174.94 7.66C174.86 7.69 174.76 7.70 174.68 7.70C174.59 7.70 174.45 7.69 174.22 7.69L173.42 7.69C173.24 7.69 173.24 7.67 173.24 7.59ZM186.07 12.39C186.07 12.63 186.10 12.68 186.30 12.68C186.62 12.68 187.59 12.64 188.01 12.64C188.43 12.64 192.93 12.68 193.26 12.68C193.38 12.68 193.54 12.66 193.54 12.49C193.54 12.07 193.58 11.23 193.58 10.53C193.58 10.39 193.42 10.39 193.30 10.39C193.19 10.39 193.06 10.39 193.06 10.51C193.05 11.06 193.05 11.41 193.02 11.76C192.99 12.01 192.99 12.04 192.89 12.04C192.74 12.04 190.11 12.08 188.61 12.08C188.54 12.08 188.50 10.11 188.45 8.26C188.45 8.06 188.50 8.09 188.64 8.09L190.92 8.09C191.62 8.09 191.65 8.20 191.65 8.30L191.65 9.00C191.65 9.14 191.83 9.14 191.94 9.14C192.04 9.14 192.16 9.13 192.16 9.02C192.16 8.83 192.14 8.33 192.14 7.83C192.14 7.32 192.16 6.83 192.16 6.71C192.16 6.59 192.02 6.58 191.93 6.58C191.81 6.58 191.65 6.59 191.65 6.72L191.65 7.45C191.65 7.62 191.20 7.63 190.92 7.63L188.58 7.63C188.47 7.63 188.45 7.63 188.45 7.45C188.44 6.75 188.43 6.06 188.43 5.46C188.43 5.12 188.43 3.71 188.51 3.71C189.74 3.71 192.25 3.75 192.25 3.81C192.25 3.99 192.21 4.83 192.21 4.89C192.21 5.04 192.28 5.10 192.46 5.10C192.65 5.10 192.72 5.08 192.72 4.94C192.72 3.85 192.78 3.36 192.78 3.09C192.78 2.91 192.70 2.90 192.50 2.90C192.30 2.90 192.30 2.95 192.28 3.11C192.26 3.25 192.33 3.25 191.42 3.25C190.81 3.25 188.66 3.29 187.89 3.29C187.40 3.29 186.47 3.25 186.37 3.25C186.24 3.25 186.19 3.30 186.19 3.49C186.19 3.72 186.26 3.74 186.42 3.74L187.08 3.74C187.14 3.74 187.21 4.79 187.21 5.71C187.21 5.80 187.26 8.27 187.26 9.83L187.26 11.17C187.26 11.84 187.24 12.18 187.21 12.18L186.35 12.18C186.13 12.18 186.07 12.21 186.07 12.39ZM201.28 5.01C201.28 5.17 201.46 5.17 201.59 5.17C201.74 5.17 201.78 5.15 201.80 4.97L201.91 3.89C201.92 3.81 202.47 3.75 203.22 3.75L205.21 3.75C205.27 3.75 205.30 4.35 205.30 4.97C205.30 6.43 205.24 12.18 205.11 12.18L204.25 12.18C204.02 12.18 203.98 12.19 203.98 12.39C203.98 12.63 203.99 12.68 204.19 12.68C204.51 12.68 205.49 12.64 205.91 12.64C206.33 12.64 207.27 12.68 207.59 12.68C207.76 12.68 207.79 12.61 207.79 12.40C207.79 12.24 207.76 12.18 207.59 12.18L206.60 12.18C206.57 12.18 206.57 11.76 206.57 11.31C206.57 9.56 206.65 5.96 206.65 5.92C206.67 5.18 206.67 3.75 206.77 3.75L208.38 3.75C209.09 3.75 209.92 3.78 209.92 3.85C209.92 3.99 209.87 4.90 209.87 4.97C209.87 5.12 209.94 5.17 210.13 5.17C210.32 5.17 210.39 5.17 210.39 5.03C210.39 3.93 210.45 3.40 210.45 3.14C210.45 2.94 210.36 2.94 210.17 2.94C210.01 2.94 209.96 2.98 209.94 3.16C209.94 3.23 209.30 3.28 208.46 3.28L203.46 3.28C202.80 3.28 201.99 3.28 201.99 3.21L201.99 3.07C201.99 2.94 201.87 2.94 201.77 2.94C201.54 2.94 201.52 3.00 201.50 3.19C201.45 3.89 201.28 4.97 201.28 5.01ZM217.94 5.01C217.94 5.17 218.12 5.17 218.25 5.17C218.40 5.17 218.44 5.15 218.46 4.97L218.57 3.89C218.58 3.81 219.13 3.75 219.88 3.75L221.87 3.75C221.93 3.75 221.96 4.35 221.96 4.97C221.96 6.43 221.90 12.18 221.77 12.18L220.91 12.18C220.68 12.18 220.64 12.19 220.64 12.39C220.64 12.63 220.65 12.68 220.85 12.68C221.17 12.68 222.15 12.64 222.57 12.64C222.99 12.64 223.93 12.68 224.25 12.68C224.42 12.68 224.45 12.61 224.45 12.40C224.45 12.24 224.42 12.18 224.25 12.18L223.26 12.18C223.23 12.18 223.23 11.76 223.23 11.31C223.23 9.56 223.31 5.96 223.31 5.92C223.33 5.18 223.33 3.75 223.43 3.75L225.04 3.75C225.75 3.75 226.58 3.78 226.58 3.85C226.58 3.99 226.53 4.90 226.53 4.97C226.53 5.12 226.60 5.17 226.79 5.17C226.98 5.17 227.05 5.17 227.05 5.03C227.05 3.93 227.11 3.40 227.11 3.14C227.11 2.94 227.02 2.94 226.83 2.94C226.67 2.94 226.62 2.98 226.60 3.16C226.60 3.23 225.96 3.28 225.12 3.28L220.12 3.28C219.46 3.28 218.65 3.28 218.65 3.21L218.65 3.07C218.65 2.94 218.53 2.94 218.43 2.94C218.20 2.94 218.18 3.00 218.16 3.19C218.11 3.89 217.94 4.97 217.94 5.01ZM234.86 12.39C234.86 12.63 234.89 12.68 235.09 12.68C235.41 12.68 236.38 12.64 236.80 12.64C237.22 12.64 241.72 12.68 242.05 12.68C242.17 12.68 242.33 12.66 242.33 12.49C242.33 12.07 242.37 11.23 242.37 10.53C242.37 10.39 242.21 10.39 242.09 10.39C241.98 10.39 241.85 10.39 241.85 10.51C241.84 11.06 241.84 11.41 241.81 11.76C241.78 12.01 241.78 12.04 241.68 12.04C241.53 12.04 238.90 12.08 237.40 12.08C237.33 12.08 237.29 10.11 237.24 8.26C237.24 8.06 237.29 8.09 237.43 8.09L239.71 8.09C240.41 8.09 240.44 8.20 240.44 8.30L240.44 9.00C240.44 9.14 240.62 9.14 240.73 9.14C240.83 9.14 240.95 9.13 240.95 9.02C240.95 8.83 240.93 8.33 240.93 7.83C240.93 7.32 240.95 6.83 240.95 6.71C240.95 6.59 240.81 6.58 240.72 6.58C240.60 6.58 240.44 6.59 240.44 6.72L240.44 7.45C240.44 7.62 239.99 7.63 239.71 7.63L237.37 7.63C237.26 7.63 237.24 7.63 237.24 7.45C237.23 6.75 237.22 6.06 237.22 5.46C237.22 5.12 237.22 3.71 237.30 3.71C238.53 3.71 241.04 3.75 241.04 3.81C241.04 3.99 241.00 4.83 241.00 4.89C241.00 5.04 241.07 5.10 241.25 5.10C241.44 5.10 241.51 5.08 241.51 4.94C241.51 3.85 241.57 3.36 241.57 3.09C241.57 2.91 241.49 2.90 241.29 2.90C241.09 2.90 241.09 2.95 241.07 3.11C241.05 3.25 241.12 3.25 240.21 3.25C239.60 3.25 237.45 3.29 236.68 3.29C236.19 3.29 235.26 3.25 235.16 3.25C235.03 3.25 234.98 3.30 234.98 3.49C234.98 3.72 235.05 3.74 235.21 3.74L235.87 3.74C235.93 3.74 236.00 4.79 236.00 5.71C236.00 5.80 236.05 8.27 236.05 9.83L236.05 11.17C236.05 11.84 236.03 12.18 236.00 12.18L235.14 12.18C234.92 12.18 234.86 12.21 234.86 12.39ZM250.33 3.51C250.33 3.72 250.40 3.79 250.60 3.79L251.41 3.77C251.51 3.77 251.55 6.61 251.55 8.55L251.55 10.42C251.55 11.30 251.54 12.18 251.50 12.18L250.89 12.18C250.67 12.18 250.60 12.19 250.60 12.39C250.60 12.63 250.64 12.68 250.84 12.68C250.96 12.68 251.79 12.64 252.21 12.64C252.63 12.64 253.40 12.68 253.72 12.68C253.89 12.68 253.92 12.61 253.92 12.40C253.92 12.24 253.89 12.18 253.72 12.18L252.91 12.18C252.84 12.18 252.76 9.18 252.76 8.37C252.76 8.30 252.76 8.26 252.87 8.26C253.26 8.26 253.86 8.27 254.16 8.27C256.40 8.32 256.54 10.00 256.54 11.68L256.54 12.49C256.54 12.61 256.59 12.64 256.69 12.64C256.69 12.64 258.13 12.68 258.61 12.68C258.78 12.68 258.83 12.64 258.83 12.53C258.83 12.24 258.78 12.18 258.62 12.18L257.98 12.18C257.88 12.18 257.85 12.14 257.82 11.31C257.74 8.99 256.37 8.34 255.46 8.05C255.32 8.01 255.35 8.01 255.46 7.95C256.05 7.69 257.36 6.94 257.36 5.63C257.36 3.63 255.67 3.21 254.27 3.21C253.95 3.21 252.66 3.29 252.24 3.29C251.82 3.29 250.84 3.26 250.61 3.26C250.43 3.26 250.33 3.28 250.33 3.51ZM252.76 7.80L252.76 4.40C252.76 4.05 252.78 3.68 252.83 3.68C253.04 3.65 253.32 3.65 253.54 3.65C254.84 3.65 256.09 4.47 256.09 5.82C256.09 6.99 255.54 7.57 254.88 7.88C254.84 7.90 254.80 7.90 254.73 7.90C254.25 7.88 253.54 7.88 252.94 7.87C252.77 7.87 252.76 7.85 252.76 7.80ZM275.84 5.01C275.84 5.17 276.02 5.17 276.15 5.17C276.30 5.17 276.35 5.15 276.36 4.97L276.47 3.89C276.49 3.81 277.03 3.75 277.79 3.75L279.78 3.75C279.83 3.75 279.86 4.35 279.86 4.97C279.86 6.43 279.80 12.18 279.68 12.18L278.81 12.18C278.59 12.18 278.54 12.19 278.54 12.39C278.54 12.63 278.56 12.68 278.75 12.68C279.08 12.68 280.06 12.64 280.48 12.64C280.90 12.64 281.83 12.68 282.16 12.68C282.32 12.68 282.35 12.61 282.35 12.40C282.35 12.24 282.32 12.18 282.16 12.18L281.16 12.18C281.13 12.18 281.13 11.76 281.13 11.31C281.13 9.56 281.22 5.96 281.22 5.92C281.23 5.18 281.23 3.75 281.33 3.75L282.94 3.75C283.65 3.75 284.48 3.78 284.48 3.85C284.48 3.99 284.44 4.90 284.44 4.97C284.44 5.12 284.51 5.17 284.69 5.17C284.89 5.17 284.96 5.17 284.96 5.03C284.96 3.93 285.01 3.40 285.01 3.14C285.01 2.94 284.93 2.94 284.73 2.94C284.58 2.94 284.52 2.98 284.51 3.16C284.51 3.23 283.86 3.28 283.02 3.28L278.03 3.28C277.37 3.28 276.56 3.28 276.56 3.21L276.56 3.07C276.56 2.94 276.43 2.94 276.33 2.94C276.11 2.94 276.08 3.00 276.07 3.19C276.01 3.89 275.84 4.97 275.84 5.01ZM292.28 8.15C292.28 11.17 294.62 12.80 296.87 12.80C299.66 12.80 301.63 10.89 301.63 8.06C301.63 5.33 299.88 3.11 297.08 3.11C294.48 3.11 292.28 5.10 292.28 8.15ZM293.68 7.77C293.68 5.64 294.97 3.58 296.94 3.58C299.18 3.58 300.26 5.81 300.26 7.94C300.26 10.08 299.15 12.32 296.88 12.32C294.90 12.32 293.68 10.28 293.68 7.77ZM309.67 12.39C309.67 12.63 309.69 12.68 309.89 12.68C310.13 12.68 310.63 12.64 311.05 12.64C311.47 12.64 311.96 12.68 312.28 12.68C312.45 12.68 312.48 12.61 312.48 12.40C312.48 12.24 312.45 12.18 312.28 12.18L311.32 12.18C311.26 12.18 311.25 11.54 311.25 10.79C311.25 8.96 311.29 6.13 311.36 4.28C311.39 3.88 311.42 3.91 311.56 4.27L314.82 12.32C314.92 12.54 314.99 12.74 315.10 12.74C315.20 12.74 315.27 12.63 315.35 12.45C315.69 11.79 315.87 11.75 316.13 11.09L318.72 4.47C318.85 4.16 318.89 4.02 318.91 4.47C318.93 5.66 318.98 8.47 318.98 9.74C318.98 10.99 318.93 12.18 318.88 12.18L318.25 12.18C318.02 12.18 317.95 12.19 317.95 12.39C317.95 12.63 317.98 12.68 318.18 12.68C318.37 12.68 319.07 12.64 319.68 12.64C320.10 12.64 320.85 12.68 321.17 12.68C321.34 12.68 321.37 12.61 321.37 12.40C321.37 12.22 321.31 12.18 321.15 12.18L320.42 12.18C320.31 12.18 320.21 8.44 320.21 6.03L320.21 4.77C320.21 4.17 320.24 3.77 320.28 3.70L320.94 3.70C321.16 3.70 321.20 3.68 321.20 3.49C321.20 3.25 321.19 3.19 320.99 3.19C320.67 3.19 319.98 3.23 319.56 3.23L318.89 3.23C318.67 3.23 318.64 3.29 318.53 3.58L315.78 10.72C315.70 10.95 315.67 11.02 315.56 10.74L312.62 3.40C312.55 3.22 312.49 3.19 312.35 3.19C312.27 3.19 311.78 3.23 311.47 3.23C310.97 3.23 310.11 3.19 309.92 3.19C309.78 3.19 309.78 3.26 309.78 3.47C309.78 3.64 309.78 3.70 309.92 3.70L310.62 3.70C310.88 3.70 310.88 3.72 310.88 3.84C310.88 4.82 310.67 9.94 310.63 10.79C310.59 11.55 310.59 12.18 310.53 12.18L309.96 12.18C309.74 12.18 309.67 12.19 309.67 12.39ZM329.34 8.15C329.34 11.17 331.67 12.80 333.93 12.80C336.71 12.80 338.69 10.89 338.69 8.06C338.69 5.33 336.94 3.11 334.14 3.11C331.53 3.11 329.34 5.10 329.34 8.15ZM330.74 7.77C330.74 5.64 332.02 3.58 334.00 3.58C336.24 3.58 337.32 5.81 337.32 7.94C337.32 10.08 336.21 12.32 333.94 12.32C331.95 12.32 330.74 10.28 330.74 7.77ZM346.79 3.51C346.79 3.72 346.86 3.79 347.06 3.79L347.87 3.77C347.97 3.77 348.01 6.61 348.01 8.55L348.01 10.42C348.01 11.30 348.00 12.18 347.96 12.18L347.35 12.18C347.13 12.18 347.06 12.19 347.06 12.39C347.06 12.63 347.10 12.68 347.30 12.68C347.42 12.68 348.25 12.64 348.67 12.64C349.09 12.64 349.86 12.68 350.18 12.68C350.35 12.68 350.38 12.61 350.38 12.40C350.38 12.24 350.35 12.18 350.18 12.18L349.37 12.18C349.30 12.18 349.22 9.18 349.22 8.37C349.22 8.30 349.22 8.26 349.33 8.26C349.72 8.26 350.32 8.27 350.62 8.27C352.86 8.32 353.00 10.00 353.00 11.68L353.00 12.49C353.00 12.61 353.05 12.64 353.15 12.64C353.15 12.64 354.59 12.68 355.07 12.68C355.24 12.68 355.29 12.64 355.29 12.53C355.29 12.24 355.24 12.18 355.08 12.18L354.44 12.18C354.34 12.18 354.31 12.14 354.28 11.31C354.20 8.99 352.83 8.34 351.92 8.05C351.78 8.01 351.81 8.01 351.92 7.95C352.51 7.69 353.82 6.94 353.82 5.63C353.82 3.63 352.13 3.21 350.73 3.21C350.41 3.21 349.12 3.29 348.70 3.29C348.28 3.29 347.30 3.26 347.07 3.26C346.89 3.26 346.79 3.28 346.79 3.51ZM349.22 7.80L349.22 4.40C349.22 4.05 349.24 3.68 349.29 3.68C349.50 3.65 349.78 3.65 350.00 3.65C351.30 3.65 352.55 4.47 352.55 5.82C352.55 6.99 352.00 7.57 351.34 7.88C351.30 7.90 351.26 7.90 351.19 7.90C350.71 7.88 350.00 7.88 349.40 7.87C349.23 7.87 349.22 7.85 349.22 7.80ZM362.77 3.51C362.77 3.72 362.84 3.79 363.03 3.79L363.85 3.77C363.94 3.77 363.99 6.61 363.99 8.55L363.99 10.42C363.99 11.30 363.97 12.18 363.93 12.18L363.33 12.18C363.10 12.18 363.03 12.19 363.03 12.39C363.03 12.63 363.08 12.68 363.27 12.68C363.40 12.68 364.22 12.64 364.64 12.64C365.06 12.64 365.83 12.68 366.16 12.68C366.32 12.68 366.35 12.61 366.35 12.40C366.35 12.24 366.32 12.18 366.16 12.18L365.34 12.18C365.27 12.18 365.19 9.18 365.19 8.37C365.19 8.30 365.19 8.26 365.30 8.26C365.69 8.26 366.30 8.27 366.59 8.27C368.83 8.32 368.97 10.00 368.97 11.68L368.97 12.49C368.97 12.61 369.03 12.64 369.12 12.64C369.12 12.64 370.57 12.68 371.04 12.68C371.21 12.68 371.27 12.64 371.27 12.53C371.27 12.24 371.21 12.18 371.06 12.18L370.41 12.18C370.31 12.18 370.29 12.14 370.26 11.31C370.17 8.99 368.80 8.34 367.89 8.05C367.75 8.01 367.78 8.01 367.89 7.95C368.48 7.69 369.80 6.94 369.80 5.63C369.80 3.63 368.10 3.21 366.70 3.21C366.38 3.21 365.09 3.29 364.67 3.29C364.25 3.29 363.27 3.26 363.05 3.26C362.87 3.26 362.77 3.28 362.77 3.51ZM365.19 7.80L365.19 4.40C365.19 4.05 365.22 3.68 365.26 3.68C365.47 3.65 365.75 3.65 365.97 3.65C367.28 3.65 368.52 4.47 368.52 5.82C368.52 6.99 367.98 7.57 367.32 7.88C367.28 7.90 367.23 7.90 367.16 7.90C366.69 7.88 365.97 7.88 365.37 7.87C365.20 7.87 365.19 7.85 365.19 7.80ZM378.67 8.15C378.67 11.17 381.01 12.80 383.26 12.80C386.05 12.80 388.02 10.89 388.02 8.06C388.02 5.33 386.27 3.11 383.47 3.11C380.87 3.11 378.67 5.10 378.67 8.15ZM380.07 7.77C380.07 5.64 381.36 3.58 383.33 3.58C385.57 3.58 386.65 5.81 386.65 7.94C386.65 10.08 385.55 12.32 383.28 12.32C381.29 12.32 380.07 10.28 380.07 7.77ZM395.43 3.51C395.43 3.75 395.54 3.77 395.71 3.77L396.21 3.77C396.30 3.77 398.44 10.99 398.47 11.07C398.82 12.14 398.93 12.99 399.24 12.99C399.46 12.99 399.56 12.67 399.84 12.26C399.99 12.05 400.09 12.01 400.23 11.66L402.22 6.45C402.29 6.29 402.32 6.20 402.35 6.20C402.37 6.20 402.40 6.29 402.44 6.45C403.05 8.51 403.72 11.03 403.73 11.07C404.08 12.14 404.19 12.99 404.50 12.99C404.73 12.99 404.82 12.67 405.10 12.26C405.26 12.05 405.36 12.01 405.50 11.66L408.59 4.06C408.69 3.81 408.69 3.77 409.05 3.77C409.29 3.77 409.35 3.71 409.35 3.53C409.35 3.32 409.30 3.26 409.11 3.26C408.97 3.26 408.66 3.30 408.16 3.30C407.41 3.30 406.91 3.26 406.71 3.26C406.53 3.26 406.43 3.28 406.43 3.51C406.43 3.75 406.55 3.77 406.71 3.77L407.62 3.77C407.69 3.77 407.71 3.81 407.71 3.95C407.71 4.63 406.11 8.72 405.40 10.63C405.26 10.99 405.19 11.17 405.15 11.17C405.09 11.17 405.03 10.99 404.91 10.60C404.82 10.30 403.90 7.18 403.37 5.22C403.33 5.05 403.12 4.17 403.12 3.85C403.12 3.81 403.12 3.79 403.13 3.77L404.01 3.77C404.19 3.77 404.29 3.75 404.29 3.56C404.29 3.32 404.25 3.26 404.05 3.26C403.73 3.26 402.79 3.30 402.37 3.30C401.95 3.30 401.04 3.26 400.82 3.26C400.64 3.26 400.54 3.28 400.54 3.51C400.54 3.75 400.65 3.77 400.82 3.77L401.62 3.77C401.66 3.77 401.84 4.27 402.00 4.83C402.05 5.05 402.09 5.15 402.09 5.25C402.09 5.31 402.09 5.38 402.05 5.49L400.05 10.60C399.95 10.82 399.92 10.95 399.88 10.95C399.84 10.95 399.81 10.84 399.73 10.60C399.64 10.32 398.64 7.27 398.03 5.22C397.99 5.08 397.67 3.96 397.66 3.85C397.67 3.77 397.71 3.77 397.75 3.77L398.45 3.77C398.68 3.77 398.75 3.75 398.75 3.56C398.75 3.32 398.71 3.26 398.51 3.26C398.19 3.26 397.47 3.30 397.05 3.30C396.63 3.30 395.93 3.26 395.71 3.26C395.53 3.26 395.43 3.28 395.43 3.51Z"></path></g></svg>