<svg data-v-fde0c5aa="" xmlns="http://www.w3.org/2000/svg" viewBox="0 0 300 300" class="iconAboveSlogan"><!----><defs data-v-fde0c5aa=""><!----></defs><rect data-v-fde0c5aa="" fill="transparent" x="0" y="0" width="300px" height="300px" class="logo-background-square"></rect><defs data-v-fde0c5aa=""><!----></defs><g data-v-fde0c5aa="" id="15efa746-a2a9-404d-bbc9-45a40589c807" fill="#000000" transform="matrix(3.4662044073508667,0,0,3.4662044073508667,15.147313912349539,154.70243079725833)"><path d="M8.50 11.21L8.50 11.21Q8.64 11.44 8.64 11.68L8.64 11.68L8.64 11.68Q8.64 11.96 8.45 12.14L8.45 12.14L8.45 12.14Q8.26 12.33 7.94 12.33L7.94 12.33L7.94 12.33Q7.53 12.33 7.31 11.98L7.31 11.98L4.90 8.12L4.65 8.12L2.86 8.12L2.86 11.61L2.86 11.61Q2.86 11.91 2.65 12.12L2.65 12.12L2.65 12.12Q2.45 12.33 2.13 12.33L2.13 12.33L2.13 12.33Q1.82 12.33 1.61 12.12L1.61 12.12L1.61 12.12Q1.40 11.91 1.40 11.61L1.40 11.61L1.40 2.13L1.40 2.13Q1.40 1.81 1.61 1.60L1.61 1.60L1.61 1.60Q1.82 1.40 2.13 1.40L2.13 1.40L4.65 1.40L4.65 1.40Q5.68 1.40 6.50 1.83L6.50 1.83L6.50 1.83Q7.32 2.27 7.78 3.05L7.78 3.05L7.78 3.05Q8.23 3.84 8.23 4.84L8.23 4.84L8.23 4.84Q8.23 5.84 7.73 6.61L7.73 6.61L7.73 6.61Q7.22 7.38 6.36 7.77L6.36 7.77L8.50 11.21ZM2.86 6.78L4.65 6.78L4.65 6.78Q5.60 6.78 6.22 6.24L6.22 6.24L6.22 6.24Q6.83 5.70 6.83 4.84L6.83 4.84L6.83 4.84Q6.83 3.92 6.22 3.33L6.22 3.33L6.22 3.33Q5.60 2.74 4.65 2.74L4.65 2.74L2.86 2.74L2.86 6.78ZM10.51 10.61L10.51 10.61Q10.91 10.61 11.19 10.90L11.19 10.90L11.19 10.90Q11.48 11.19 11.48 11.59L11.48 11.59L11.48 11.59Q11.48 11.98 11.20 12.27L11.20 12.27L11.20 12.27Q10.92 12.56 10.51 12.56L10.51 12.56L10.51 12.56Q10.12 12.56 9.84 12.27L9.84 12.27L9.84 12.27Q9.55 11.98 9.55 11.59L9.55 11.59L9.55 11.59Q9.55 11.19 9.84 10.90L9.84 10.90L9.84 10.90Q10.12 10.61 10.51 10.61L10.51 10.61ZM25.06 2.13L25.06 2.13Q25.06 1.81 25.27 1.60L25.27 1.60L25.27 1.60Q25.48 1.40 25.79 1.40L25.79 1.40L25.79 1.40Q26.10 1.40 26.30 1.60L26.30 1.60L26.30 1.60Q26.50 1.81 26.50 2.13L26.50 2.13L26.50 11.61L26.50 11.61Q26.50 11.93 26.30 12.13L26.30 12.13L26.30 12.13Q26.10 12.33 25.79 12.33L25.79 12.33L25.79 12.33Q25.63 12.33 25.47 12.27L25.47 12.27L25.47 12.27Q25.31 12.21 25.23 12.08L25.23 12.08L19.12 3.96L19.12 11.61L19.12 11.61Q19.12 11.91 18.92 12.12L18.92 12.12L18.92 12.12Q18.72 12.33 18.40 12.33L18.40 12.33L18.40 12.33Q18.09 12.33 17.89 12.13L17.89 12.13L17.89 12.13Q17.68 11.93 17.68 11.61L17.68 11.61L17.68 2.13L17.68 2.13Q17.68 1.81 17.89 1.60L17.89 1.60L17.89 1.60Q18.09 1.40 18.40 1.40L18.40 1.40L18.40 1.40Q18.55 1.40 18.70 1.48L18.70 1.48L18.70 1.48Q18.86 1.55 18.96 1.67L18.96 1.67L25.06 9.79L25.06 2.13ZM32.63 4.62L32.63 4.62Q33.74 4.62 34.62 5.12L34.62 5.12L34.62 5.12Q35.49 5.61 35.99 6.50L35.99 6.50L35.99 6.50Q36.48 7.38 36.48 8.51L36.48 8.51L36.48 8.51Q36.48 9.63 35.99 10.51L35.99 10.51L35.99 10.51Q35.50 11.40 34.63 11.89L34.63 11.89L34.63 11.89Q33.75 12.39 32.63 12.39L32.63 12.39L32.63 12.39Q31.51 12.39 30.63 11.89L30.63 11.89L30.63 11.89Q29.75 11.40 29.26 10.51L29.26 10.51L29.26 10.51Q28.77 9.63 28.77 8.51L28.77 8.51L28.77 8.51Q28.77 7.38 29.26 6.50L29.26 6.50L29.26 6.50Q29.75 5.61 30.63 5.12L30.63 5.12L30.63 5.12Q31.51 4.62 32.63 4.62L32.63 4.62ZM32.63 5.88L32.63 5.88Q31.92 5.88 31.35 6.22L31.35 6.22L31.35 6.22Q30.79 6.55 30.46 7.15L30.46 7.15L30.46 7.15Q30.14 7.76 30.14 8.51L30.14 8.51L30.14 8.51Q30.14 9.27 30.46 9.86L30.46 9.86L30.46 9.86Q30.79 10.46 31.35 10.79L31.35 10.79L31.35 10.79Q31.92 11.13 32.63 11.13L32.63 11.13L32.63 11.13Q33.35 11.13 33.91 10.79L33.91 10.79L33.91 10.79Q34.48 10.46 34.80 9.86L34.80 9.86L34.80 9.86Q35.11 9.27 35.11 8.51L35.11 8.51L35.11 8.51Q35.11 7.76 34.80 7.15L34.80 7.15L34.80 7.15Q34.48 6.55 33.91 6.22L33.91 6.22L33.91 6.22Q33.35 5.88 32.63 5.88L32.63 5.88ZM46.75 4.68L46.75 4.68Q47.04 4.68 47.19 4.83L47.19 4.83L47.19 4.83Q47.33 4.98 47.33 5.25L47.33 5.25L47.33 5.25Q47.33 5.47 47.26 5.66L47.26 5.66L45.19 11.87L45.19 11.87Q45.12 12.07 44.94 12.20L44.94 12.20L44.94 12.20Q44.76 12.33 44.53 12.33L44.53 12.33L44.53 12.33Q44.30 12.33 44.11 12.20L44.11 12.20L44.11 12.20Q43.92 12.07 43.86 11.87L43.86 11.87L42.49 6.79L41.05 11.87L41.05 11.87Q40.98 12.07 40.79 12.20L40.79 12.20L40.79 12.20Q40.60 12.33 40.38 12.33L40.38 12.33L40.38 12.33Q40.15 12.33 39.96 12.20L39.96 12.20L39.96 12.20Q39.77 12.07 39.70 11.87L39.70 11.87L37.63 5.66L37.63 5.66Q37.58 5.47 37.58 5.26L37.58 5.26L37.58 5.26Q37.58 4.68 38.16 4.68L38.16 4.68L38.16 4.68Q38.43 4.68 38.61 4.83L38.61 4.83L38.61 4.83Q38.78 4.98 38.89 5.32L38.89 5.32L40.40 10.04L41.83 5.21L41.83 5.21Q41.90 4.97 42.08 4.82L42.08 4.82L42.08 4.82Q42.25 4.68 42.53 4.68L42.53 4.68L42.53 4.68Q42.80 4.68 42.97 4.82L42.97 4.82L42.97 4.82Q43.15 4.97 43.22 5.21L43.22 5.21L44.48 10.14L46.02 5.32L46.02 5.32Q46.21 4.68 46.75 4.68L46.75 4.68ZM52.28 4.62L52.28 4.62Q53.35 4.62 54.23 5.13L54.23 5.13L54.23 5.13Q55.10 5.64 55.62 6.53L55.62 6.53L55.62 6.53Q56.13 7.42 56.13 8.51L56.13 8.51L56.13 11.63L56.13 11.63Q56.13 11.94 55.92 12.14L55.92 12.14L55.92 12.14Q55.72 12.35 55.41 12.35L55.41 12.35L55.41 12.35Q55.10 12.35 54.90 12.14L54.90 12.14L54.90 12.14Q54.70 11.94 54.70 11.63L54.70 11.63L54.70 11.12L54.70 11.12Q54.21 11.72 53.51 12.05L53.51 12.05L53.51 12.05Q52.81 12.39 52.00 12.39L52.00 12.39L52.00 12.39Q50.99 12.39 50.17 11.89L50.17 11.89L50.17 11.89Q49.35 11.38 48.88 10.49L48.88 10.49L48.88 10.49Q48.41 9.60 48.41 8.51L48.41 8.51L48.41 8.51Q48.41 7.42 48.92 6.53L48.92 6.53L48.92 6.53Q49.42 5.64 50.31 5.13L50.31 5.13L50.31 5.13Q51.20 4.62 52.28 4.62L52.28 4.62ZM52.28 11.13L52.28 11.13Q52.98 11.13 53.54 10.79L53.54 10.79L53.54 10.79Q54.11 10.44 54.43 9.85L54.43 9.85L54.43 9.85Q54.75 9.25 54.75 8.51L54.75 8.51L54.75 8.51Q54.75 7.77 54.43 7.17L54.43 7.17L54.43 7.17Q54.11 6.57 53.54 6.22L53.54 6.22L53.54 6.22Q52.98 5.88 52.28 5.88L52.28 5.88L52.28 5.88Q51.58 5.88 51.01 6.22L51.01 6.22L51.01 6.22Q50.44 6.57 50.11 7.17L50.11 7.17L50.11 7.17Q49.78 7.77 49.78 8.51L49.78 8.51L49.78 8.51Q49.78 9.25 50.11 9.85L50.11 9.85L50.11 9.85Q50.44 10.44 51.01 10.79L51.01 10.79L51.01 10.79Q51.58 11.13 52.28 11.13L52.28 11.13ZM61.66 4.62L61.66 4.62Q63.31 4.62 64.40 5.88L64.40 5.88L64.40 5.88Q64.54 6.03 64.54 6.24L64.54 6.24L64.54 6.24Q64.54 6.55 64.23 6.76L64.23 6.76L64.23 6.76Q64.09 6.86 63.91 6.86L63.91 6.86L63.91 6.86Q63.59 6.86 63.36 6.61L63.36 6.61L63.36 6.61Q63.01 6.23 62.60 6.05L62.60 6.05L62.60 6.05Q62.19 5.88 61.66 5.88L61.66 5.88L61.66 5.88Q60.58 5.88 59.91 6.60L59.91 6.60L59.91 6.60Q59.23 7.32 59.23 8.51L59.23 8.51L59.23 8.51Q59.23 9.27 59.55 9.86L59.55 9.86L59.55 9.86Q59.86 10.46 60.43 10.79L60.43 10.79L60.43 10.79Q61.00 11.13 61.73 11.13L61.73 11.13L61.73 11.13Q62.68 11.13 63.27 10.64L63.27 10.64L63.27 10.64Q63.53 10.44 63.78 10.44L63.78 10.44L63.78 10.44Q63.98 10.44 64.15 10.57L64.15 10.57L64.15 10.57Q64.41 10.79 64.41 11.07L64.41 11.07L64.41 11.07Q64.41 11.28 64.25 11.45L64.25 11.45L64.25 11.45Q63.24 12.39 61.73 12.39L61.73 12.39L61.73 12.39Q60.62 12.39 59.74 11.89L59.74 11.89L59.74 11.89Q58.86 11.38 58.36 10.49L58.36 10.49L58.36 10.49Q57.86 9.60 57.86 8.51L57.86 8.51L57.86 8.51Q57.86 7.39 58.35 6.50L58.35 6.50L58.35 6.50Q58.83 5.61 59.70 5.12L59.70 5.12L59.70 5.12Q60.56 4.62 61.66 4.62L61.66 4.62ZM72.45 11.33L72.45 11.33Q72.60 11.49 72.60 11.75L72.60 11.75L72.60 11.75Q72.60 12.05 72.35 12.26L72.35 12.26L72.35 12.26Q72.14 12.43 71.90 12.43L71.90 12.43L71.90 12.43Q71.60 12.43 71.40 12.18L71.40 12.18L68.74 8.89L68.04 9.51L68.04 11.65L68.04 11.65Q68.04 11.96 67.85 12.14L67.85 12.14L67.85 12.14Q67.66 12.33 67.35 12.33L67.35 12.33L67.35 12.33Q67.05 12.33 66.86 12.14L66.86 12.14L66.86 12.14Q66.67 11.96 66.67 11.65L66.67 11.65L66.67 2.09L66.67 2.09Q66.67 1.78 66.86 1.59L66.86 1.59L66.86 1.59Q67.05 1.40 67.35 1.40L67.35 1.40L67.35 1.40Q67.66 1.40 67.85 1.59L67.85 1.59L67.85 1.59Q68.04 1.78 68.04 2.09L68.04 2.09L68.04 7.78L71.44 4.75L71.44 4.75Q71.62 4.56 71.88 4.56L71.88 4.56L71.88 4.56Q72.17 4.56 72.35 4.79L72.35 4.79L72.35 4.79Q72.53 4.97 72.53 5.22L72.53 5.22L72.53 5.22Q72.53 5.52 72.31 5.70L72.31 5.70L69.73 7.99L72.45 11.33ZM74.77 5.39L74.77 5.39Q74.77 5.07 74.98 4.87L74.98 4.87L74.98 4.87Q75.18 4.68 75.49 4.68L75.49 4.68L75.49 4.68Q75.81 4.68 76.01 4.87L76.01 4.87L76.01 4.87Q76.20 5.07 76.20 5.39L76.20 5.39L76.20 11.62L76.20 11.62Q76.20 11.93 76.01 12.13L76.01 12.13L76.01 12.13Q75.81 12.33 75.49 12.33L75.49 12.33L75.49 12.33Q75.18 12.33 74.98 12.13L74.98 12.13L74.98 12.13Q74.77 11.93 74.77 11.62L74.77 11.62L74.77 5.39ZM75.49 1.58L75.49 1.58Q75.87 1.58 76.14 1.85L76.14 1.85L76.14 1.85Q76.41 2.13 76.41 2.51L76.41 2.51L76.41 2.51Q76.41 2.88 76.14 3.16L76.14 3.16L76.14 3.16Q75.87 3.43 75.49 3.43L75.49 3.43L75.49 3.43Q75.11 3.43 74.84 3.16L74.84 3.16L74.84 3.16Q74.56 2.88 74.56 2.51L74.56 2.51L74.56 2.51Q74.56 2.13 74.84 1.85L74.84 1.85L74.84 1.85Q75.11 1.58 75.49 1.58L75.49 1.58Z"></path></g><defs data-v-fde0c5aa=""><linearGradient data-v-fde0c5aa="" gradientTransform="rotate(25)" id="422ab3d0-c399-4f19-91e2-c0119285de0d" x1="0%" y1="0%" x2="100%" y2="0%"><stop data-v-fde0c5aa="" offset="0%" stop-color="#006678" stop-opacity="1"></stop><stop data-v-fde0c5aa="" offset="100%" stop-color="#4FA8FF" stop-opacity="1"></stop></linearGradient></defs><g data-v-fde0c5aa="" id="55f533e2-58a2-465d-a219-775b48901e2b" stroke="none" fill="url(#422ab3d0-c399-4f19-91e2-c0119285de0d)" transform="matrix(1.7173195013108102,0,0,1.7173195013108102,122.52288797902703,86.60089284296285)"><path d="M4.029 14.362L14.362 4.028l.707.707L4.736 15.07zM17.135 27.47L27.47 17.135l.707.707-10.333 10.333zM4.029 17.841l.707-.707 10.333 10.334-.707.707zM17.135 4.735l.708-.707L28.176 14.36l-.707.707z"></path><g><path d="M16 1.414l1.683 1.683L16 4.779l-1.683-1.683L16 1.414M16 0l-3.097 3.097L16 6.194l3.097-3.097L16 0zM16 27.221l1.683 1.683L16 30.586l-1.683-1.683L16 27.221m0-1.415l-3.097 3.097L16 32l3.097-3.097L16 25.806zM3.097 14.317L4.779 16l-1.683 1.683L1.414 16l1.683-1.683m0-1.414L0 16l3.097 3.097L6.194 16l-3.097-3.097zM28.903 14.317L30.586 16l-1.683 1.683L27.221 16l1.682-1.683m0-1.414L25.806 16l3.097 3.097L32 16l-3.097-3.097z"></path></g></g><defs data-v-fde0c5aa=""><!----></defs><g data-v-fde0c5aa="" id="e2c5f163-cc98-4d5a-ab77-2b5fc39c7800" fill="#000000" transform="matrix(0.5130363910621047,0,0,0.5130363910621047,52.30504615855309,206.83224113127088)"><path d="M0.77 3.64L0.38 3.64L0.40 3.08L3.50 3.08L3.50 3.08Q5.24 3.08 6.02 3.75L6.02 3.75L6.02 3.75Q6.79 4.42 6.79 5.37L6.79 5.37L6.79 5.37Q6.79 6.08 6.25 6.60L6.25 6.60L6.25 6.60Q5.69 7.14 5.00 7.35L5.00 7.35L5.00 7.35Q6.08 7.57 6.61 8.34L6.61 8.34L6.61 8.34Q7.13 9.08 7.12 10.01L7.12 10.01L7.12 10.01Q7.12 11.01 6.49 11.59L6.49 11.59L6.49 11.59Q5.89 12.13 4.94 12.28L4.94 12.28L4.94 12.28Q4.02 12.41 2.47 12.41L2.47 12.41L0.49 12.41L0.49 11.87L0.91 11.87L0.91 11.87Q1.27 11.87 1.38 11.80L1.38 11.80L1.38 11.80Q1.50 11.73 1.50 11.46L1.50 11.46L1.50 4.14L1.50 4.14Q1.50 3.81 1.35 3.72L1.35 3.72L1.35 3.72Q1.21 3.64 0.77 3.64L0.77 3.64ZM2.60 7.59L2.60 7.59L2.63 11.35L2.63 11.35Q2.63 11.63 2.80 11.71L2.80 11.71L2.80 11.71Q2.97 11.80 3.54 11.80L3.54 11.80L3.54 11.80Q5.80 11.80 5.80 9.91L5.80 9.91L5.80 9.91Q5.80 9.22 5.48 8.73L5.48 8.73L5.48 8.73Q5.16 8.24 4.63 8.02L4.63 8.02L4.63 8.02Q4.05 7.75 3.61 7.68L3.61 7.68L3.61 7.68Q3.13 7.59 2.60 7.59ZM2.63 4.01L2.63 7.19L4.01 7.19L4.01 7.19Q4.66 7.19 5.08 6.66L5.08 6.66L5.08 6.66Q5.48 6.15 5.49 5.54L5.49 5.54L5.49 5.54Q5.49 4.85 4.90 4.27L4.90 4.27L4.90 4.27Q4.33 3.69 3.05 3.69L3.05 3.69L3.05 3.69Q2.63 3.69 2.63 4.01L2.63 4.01ZM15.18 3.64L15.17 3.08L22.38 3.08L22.38 3.08Q22.39 4.14 22.45 5.28L22.45 5.28L21.90 5.30L21.90 5.30Q21.89 4.66 21.83 4.25L21.83 4.25L21.83 4.25Q21.79 3.89 21.74 3.80L21.74 3.80L21.74 3.80Q21.68 3.71 21.57 3.69L21.57 3.69L21.57 3.69Q21.47 3.68 20.88 3.68L20.88 3.68L18.50 3.68L18.50 3.68Q17.96 3.68 17.81 3.77L17.81 3.77L17.81 3.77Q17.69 3.86 17.69 4.33L17.69 4.33L17.69 6.28L17.69 6.28Q17.69 6.69 17.75 6.76L17.75 6.76L17.75 6.76Q17.81 6.84 18.16 6.84L18.16 6.84L20.27 6.84L20.27 6.84Q20.63 6.84 20.71 6.73L20.71 6.73L20.71 6.73Q20.79 6.63 20.80 6.14L20.80 6.14L20.80 5.61L21.31 5.63L21.31 8.97L20.80 8.97L20.80 8.24L20.80 8.24Q20.80 7.66 20.73 7.57L20.73 7.57L20.73 7.57Q20.64 7.46 20.30 7.46L20.30 7.46L18.20 7.46L18.20 7.46Q17.86 7.46 17.78 7.54L17.78 7.54L17.78 7.54Q17.69 7.63 17.69 7.89L17.69 7.89L17.69 11.20L17.69 11.20Q17.69 11.57 17.78 11.67L17.78 11.67L17.78 11.67Q17.86 11.77 18.14 11.77L18.14 11.77L18.14 11.77Q21.05 11.75 21.58 11.69L21.58 11.69L21.58 11.69Q22.10 11.63 22.18 11.38L22.18 11.38L22.19 11.36L22.20 11.35L22.42 10.17L22.90 10.25L22.55 12.41L15.45 12.41L15.45 11.87L15.82 11.87L15.82 11.87Q16.38 11.87 16.46 11.80L16.46 11.80L16.46 11.80Q16.56 11.72 16.56 11.33L16.56 11.33L16.56 4.24L16.56 4.24Q16.56 3.82 16.41 3.73L16.41 3.73L16.41 3.73Q16.24 3.64 15.58 3.64L15.58 3.64L15.18 3.64ZM40.63 5.35L40.13 5.33L40.13 5.33Q40.25 4.17 40.33 3.08L40.33 3.08L48.41 3.08L48.41 3.08Q48.33 4.13 48.30 4.53L48.30 4.53L48.30 4.53Q48.26 5.26 48.24 5.32L48.24 5.32L47.74 5.30L47.74 5.30Q47.82 4.34 47.82 4.16L47.82 4.16L47.82 4.16Q47.82 3.88 47.68 3.79L47.68 3.79L47.68 3.79Q47.51 3.69 47.11 3.69L47.11 3.69L45.50 3.69L45.50 3.69Q44.99 3.69 44.87 3.79L44.87 3.79L44.87 3.79Q44.78 3.87 44.77 4.36L44.77 4.36L44.77 11.22L44.77 11.22Q44.77 11.66 44.91 11.76L44.91 11.76L44.91 11.76Q45.07 11.87 45.58 11.87L45.58 11.87L46.14 11.87L46.16 12.41L42.46 12.40L42.46 11.87L42.68 11.87L42.68 11.87Q43.35 11.87 43.50 11.79L43.50 11.79L43.50 11.79Q43.64 11.70 43.64 11.28L43.64 11.28L43.64 4.48L43.64 4.48Q43.64 3.92 43.54 3.80L43.54 3.80L43.54 3.80Q43.44 3.69 43.02 3.69L43.02 3.69L41.55 3.69L41.55 3.69Q41.36 3.69 41.30 3.71L41.30 3.71L41.30 3.71Q41.23 3.72 41.12 3.72L41.12 3.72L41.12 3.72Q41.09 3.72 40.97 3.79L40.97 3.79L40.97 3.79Q40.89 3.84 40.87 3.86L40.87 3.86L40.87 3.86Q40.84 3.88 40.80 3.99L40.80 3.99L40.80 3.99Q40.77 4.05 40.74 4.14L40.74 4.14L40.74 4.14Q40.71 4.21 40.69 4.36L40.69 4.36L40.69 4.36Q40.67 4.59 40.67 4.61L40.67 4.61L40.67 4.61Q40.67 4.80 40.65 4.95L40.65 4.95L40.65 4.95Q40.65 5.02 40.65 5.15L40.65 5.15L40.65 5.15Q40.64 5.29 40.63 5.35L40.63 5.35ZM56.52 3.64L56.15 3.64L56.15 3.08L59.64 3.08L59.64 3.64L59.27 3.64L59.27 3.64Q58.77 3.64 58.62 3.75L58.62 3.75L58.62 3.75Q58.48 3.84 58.47 4.25L58.47 4.25L58.47 6.91L63.03 6.91L63.03 4.14L63.03 4.14Q63.03 3.77 62.93 3.71L62.93 3.71L62.93 3.71Q62.82 3.64 62.30 3.64L62.30 3.64L61.71 3.64L61.69 3.08L65.25 3.08L65.25 3.64L64.86 3.64L64.86 3.64Q64.38 3.64 64.27 3.74L64.27 3.74L64.27 3.74Q64.16 3.83 64.16 4.22L64.16 4.22L64.16 11.29L64.16 11.29Q64.16 11.67 64.30 11.77L64.30 11.77L64.30 11.77Q64.46 11.87 65.00 11.87L65.00 11.87L65.47 11.87L65.46 12.41L61.97 12.41L61.96 11.87L62.37 11.87L62.37 11.87Q62.84 11.87 62.93 11.77L62.93 11.77L62.93 11.77Q63.03 11.67 63.03 11.25L63.03 11.25L63.03 7.58L58.47 7.58L58.47 11.25L58.47 11.25Q58.47 11.67 58.63 11.77L58.63 11.77L58.63 11.77Q58.78 11.87 59.49 11.87L59.49 11.87L59.89 11.87L59.86 12.41L56.28 12.41L56.27 11.87L56.63 11.87L56.63 11.87Q57.18 11.87 57.24 11.80L57.24 11.80L57.24 11.80Q57.34 11.70 57.34 11.25L57.34 11.25L57.34 4.09L57.34 4.09Q57.34 3.76 57.20 3.71L57.20 3.71L57.20 3.71Q57.03 3.64 56.52 3.64L56.52 3.64ZM73.23 3.64L73.21 3.08L80.42 3.08L80.42 3.08Q80.44 4.14 80.49 5.28L80.49 5.28L79.95 5.30L79.95 5.30Q79.93 4.66 79.88 4.25L79.88 4.25L79.88 4.25Q79.84 3.89 79.78 3.80L79.78 3.80L79.78 3.80Q79.73 3.71 79.61 3.69L79.61 3.69L79.61 3.69Q79.52 3.68 78.93 3.68L78.93 3.68L76.55 3.68L76.55 3.68Q76.00 3.68 75.86 3.77L75.86 3.77L75.86 3.77Q75.74 3.86 75.74 4.33L75.74 4.33L75.74 6.28L75.74 6.28Q75.74 6.69 75.79 6.76L75.79 6.76L75.79 6.76Q75.86 6.84 76.20 6.84L76.20 6.84L78.31 6.84L78.31 6.84Q78.67 6.84 78.76 6.73L78.76 6.73L78.76 6.73Q78.84 6.63 78.85 6.14L78.85 6.14L78.85 5.61L79.36 5.63L79.36 8.97L78.85 8.97L78.85 8.24L78.85 8.24Q78.85 7.66 78.77 7.57L78.77 7.57L78.77 7.57Q78.69 7.46 78.34 7.46L78.34 7.46L76.24 7.46L76.24 7.46Q75.91 7.46 75.82 7.54L75.82 7.54L75.82 7.54Q75.74 7.63 75.74 7.89L75.74 7.89L75.74 11.20L75.74 11.20Q75.74 11.57 75.82 11.67L75.82 11.67L75.82 11.67Q75.91 11.77 76.18 11.77L76.18 11.77L76.18 11.77Q79.10 11.75 79.63 11.69L79.63 11.69L79.63 11.69Q80.14 11.63 80.23 11.38L80.23 11.38L80.23 11.36L80.24 11.35L80.47 10.17L80.94 10.25L80.60 12.41L73.49 12.41L73.49 11.87L73.86 11.87L73.86 11.87Q74.42 11.87 74.50 11.80L74.50 11.80L74.50 11.80Q74.60 11.72 74.60 11.33L74.60 11.33L74.60 4.24L74.60 4.24Q74.60 3.82 74.45 3.73L74.45 3.73L74.45 3.73Q74.28 3.64 73.62 3.64L73.62 3.64L73.23 3.64ZM98.79 3.64L98.39 3.64L98.42 3.08L101.51 3.08L101.51 3.08Q103.26 3.08 104.04 3.75L104.04 3.75L104.04 3.75Q104.81 4.42 104.80 5.37L104.80 5.37L104.80 5.37Q104.80 6.08 104.27 6.60L104.27 6.60L104.27 6.60Q103.71 7.14 103.01 7.35L103.01 7.35L103.01 7.35Q104.09 7.57 104.62 8.34L104.62 8.34L104.62 8.34Q105.14 9.08 105.14 10.01L105.14 10.01L105.14 10.01Q105.14 11.01 104.51 11.59L104.51 11.59L104.51 11.59Q103.91 12.13 102.96 12.28L102.96 12.28L102.96 12.28Q102.03 12.41 100.49 12.41L100.49 12.41L98.51 12.41L98.51 11.87L98.92 11.87L98.92 11.87Q99.29 11.87 99.40 11.80L99.40 11.80L99.40 11.80Q99.51 11.73 99.51 11.46L99.51 11.46L99.51 4.14L99.51 4.14Q99.51 3.81 99.36 3.72L99.36 3.72L99.36 3.72Q99.22 3.64 98.79 3.64L98.79 3.64ZM100.62 7.59L100.62 7.59L100.65 11.35L100.65 11.35Q100.65 11.63 100.81 11.71L100.81 11.71L100.81 11.71Q100.98 11.80 101.55 11.80L101.55 11.80L101.55 11.80Q103.81 11.80 103.81 9.91L103.81 9.91L103.81 9.91Q103.81 9.22 103.49 8.73L103.49 8.73L103.49 8.73Q103.17 8.24 102.65 8.02L102.65 8.02L102.65 8.02Q102.06 7.75 101.62 7.68L101.62 7.68L101.62 7.68Q101.14 7.59 100.62 7.59ZM100.65 4.01L100.65 7.19L102.02 7.19L102.02 7.19Q102.68 7.19 103.09 6.66L103.09 6.66L103.09 6.66Q103.50 6.15 103.50 5.54L103.50 5.54L103.50 5.54Q103.50 4.85 102.92 4.27L102.92 4.27L102.92 4.27Q102.34 3.69 101.06 3.69L101.06 3.69L101.06 3.69Q100.65 3.69 100.65 4.01L100.65 4.01ZM113.20 3.64L113.18 3.08L120.39 3.08L120.39 3.08Q120.41 4.14 120.46 5.28L120.46 5.28L119.92 5.30L119.92 5.30Q119.90 4.66 119.85 4.25L119.85 4.25L119.85 4.25Q119.81 3.89 119.75 3.80L119.75 3.80L119.75 3.80Q119.70 3.71 119.58 3.69L119.58 3.69L119.58 3.69Q119.49 3.68 118.90 3.68L118.90 3.68L116.52 3.68L116.52 3.68Q115.97 3.68 115.83 3.77L115.83 3.77L115.83 3.77Q115.71 3.86 115.71 4.33L115.71 4.33L115.71 6.28L115.71 6.28Q115.71 6.69 115.76 6.76L115.76 6.76L115.76 6.76Q115.83 6.84 116.17 6.84L116.17 6.84L118.28 6.84L118.28 6.84Q118.64 6.84 118.73 6.73L118.73 6.73L118.73 6.73Q118.81 6.63 118.82 6.14L118.82 6.14L118.82 5.61L119.33 5.63L119.33 8.97L118.82 8.97L118.82 8.24L118.82 8.24Q118.82 7.66 118.74 7.57L118.74 7.57L118.74 7.57Q118.66 7.46 118.31 7.46L118.31 7.46L116.21 7.46L116.21 7.46Q115.88 7.46 115.79 7.54L115.79 7.54L115.79 7.54Q115.71 7.63 115.71 7.89L115.71 7.89L115.71 11.20L115.71 11.20Q115.71 11.57 115.79 11.67L115.79 11.67L115.79 11.67Q115.88 11.77 116.15 11.77L116.15 11.77L116.15 11.77Q119.07 11.75 119.59 11.69L119.59 11.69L119.59 11.69Q120.11 11.63 120.20 11.38L120.20 11.38L120.20 11.36L120.21 11.35L120.44 10.17L120.91 10.25L120.57 12.41L113.46 12.41L113.46 11.87L113.83 11.87L113.83 11.87Q114.39 11.87 114.47 11.80L114.47 11.80L114.47 11.80Q114.57 11.72 114.57 11.33L114.57 11.33L114.57 4.24L114.57 4.24Q114.57 3.82 114.42 3.73L114.42 3.73L114.42 3.73Q114.25 3.64 113.59 3.64L113.59 3.64L113.20 3.64ZM128.76 10.04L128.76 10.04L129.25 9.98L129.44 10.85L129.44 10.85Q129.55 11.33 129.62 11.41L129.62 11.41L129.62 11.41Q129.68 11.49 130.09 11.64L130.09 11.64L130.09 11.64Q130.94 11.95 131.83 11.95L131.83 11.95L131.83 11.95Q132.62 11.95 133.16 11.49L133.16 11.49L133.16 11.49Q133.69 11.04 133.69 10.26L133.69 10.26L133.69 10.26Q133.69 9.65 133.23 9.21L133.23 9.21L133.23 9.21Q132.75 8.76 131.90 8.30L131.90 8.30L131.33 7.98L131.33 7.98Q130.58 7.55 130.35 7.36L130.35 7.36L130.35 7.36Q129.99 7.08 129.67 6.59L129.67 6.59L129.67 6.59Q129.36 6.10 129.36 5.46L129.36 5.46L129.36 5.46Q129.36 4.39 130.20 3.68L130.20 3.68L130.20 3.68Q131.04 2.97 132.15 2.97L132.15 2.97L132.15 2.97Q132.43 2.97 132.78 3.04L132.78 3.04L132.78 3.04Q132.98 3.08 133.31 3.17L133.31 3.17L133.55 3.25L133.55 3.25Q133.65 3.25 133.69 3.16L133.69 3.16L133.69 3.16Q133.75 3.05 133.75 2.98L133.75 2.98L133.76 2.88L134.24 2.85L134.45 5.41L133.94 5.43L133.82 4.18L133.82 4.18Q133.08 3.62 131.91 3.62L131.91 3.62L131.91 3.62Q131.27 3.62 130.76 4.05L130.76 4.05L130.76 4.05Q130.29 4.47 130.29 5.12L130.29 5.12L130.29 5.12Q130.29 5.72 130.74 6.17L130.74 6.17L130.74 6.17Q131.17 6.60 132.04 7.08L132.04 7.08L132.81 7.50L132.81 7.50Q133.76 8.03 134.29 8.59L134.29 8.59L134.29 8.59Q134.83 9.15 134.83 9.92L134.83 9.92L134.83 9.92Q134.83 10.99 133.97 11.76L133.97 11.76L133.97 11.76Q133.10 12.54 131.65 12.54L131.65 12.54L131.65 12.54Q131.09 12.54 130.58 12.41L130.58 12.41L130.58 12.41Q130.08 12.29 130.03 12.29L130.03 12.29L130.03 12.29Q129.77 12.29 129.77 12.58L129.77 12.58L129.79 12.76L129.31 12.80L129.31 12.80Q129.25 12.41 128.76 10.04ZM143.29 5.35L142.79 5.33L142.79 5.33Q142.91 4.17 142.99 3.08L142.99 3.08L151.07 3.08L151.07 3.08Q150.99 4.13 150.96 4.53L150.96 4.53L150.96 4.53Q150.92 5.26 150.90 5.32L150.90 5.32L150.40 5.30L150.40 5.30Q150.49 4.34 150.49 4.16L150.49 4.16L150.49 4.16Q150.49 3.88 150.34 3.79L150.34 3.79L150.34 3.79Q150.17 3.69 149.77 3.69L149.77 3.69L148.16 3.69L148.16 3.69Q147.66 3.69 147.53 3.79L147.53 3.79L147.53 3.79Q147.44 3.87 147.43 4.36L147.43 4.36L147.43 11.22L147.43 11.22Q147.43 11.66 147.57 11.76L147.57 11.76L147.57 11.76Q147.73 11.87 148.24 11.87L148.24 11.87L148.80 11.87L148.82 12.41L145.13 12.40L145.13 11.87L145.35 11.87L145.35 11.87Q146.02 11.87 146.16 11.79L146.16 11.79L146.16 11.79Q146.30 11.70 146.30 11.28L146.30 11.28L146.30 4.48L146.30 4.48Q146.30 3.92 146.20 3.80L146.20 3.80L146.20 3.80Q146.10 3.69 145.68 3.69L145.68 3.69L144.21 3.69L144.21 3.69Q144.03 3.69 143.96 3.71L143.96 3.71L143.96 3.71Q143.89 3.72 143.78 3.72L143.78 3.72L143.78 3.72Q143.75 3.72 143.64 3.79L143.64 3.79L143.64 3.79Q143.55 3.84 143.53 3.86L143.53 3.86L143.53 3.86Q143.50 3.88 143.46 3.99L143.46 3.99L143.46 3.99Q143.43 4.05 143.40 4.14L143.40 4.14L143.40 4.14Q143.38 4.21 143.36 4.36L143.36 4.36L143.36 4.36Q143.33 4.59 143.33 4.61L143.33 4.61L143.33 4.61Q143.33 4.80 143.32 4.95L143.32 4.95L143.32 4.95Q143.32 5.02 143.31 5.15L143.31 5.15L143.31 5.15Q143.30 5.29 143.29 5.35L143.29 5.35ZM168.40 12.41L168.38 11.87L168.55 11.87L168.55 11.87Q168.94 11.87 169.07 11.73L169.07 11.73L169.07 11.73Q169.20 11.57 169.53 10.83L169.53 10.83L170.44 8.82L171.01 7.53L171.01 7.53Q171.28 6.97 171.32 6.86L171.32 6.86L171.32 6.86Q171.39 6.70 171.44 6.60L171.44 6.60L171.44 6.60Q171.49 6.51 171.51 6.45L171.51 6.45L171.60 6.21L173.03 2.74L173.33 2.74L173.33 2.74Q174.18 4.98 176.37 10.25L176.37 10.25L176.37 10.25Q176.82 11.34 177.01 11.64L177.01 11.64L177.01 11.64Q177.15 11.87 177.58 11.87L177.58 11.87L177.80 11.87L177.78 12.41L174.59 12.41L174.60 11.87L175.02 11.87L175.02 11.87Q175.64 11.87 175.64 11.70L175.64 11.70L175.64 11.70Q175.64 11.63 175.50 11.27L175.50 11.27L174.46 8.72L171.21 8.72L170.11 11.18L170.11 11.18Q169.97 11.50 169.97 11.63L169.97 11.63L169.97 11.63Q169.97 11.79 170.06 11.83L170.06 11.83L170.06 11.83Q170.16 11.87 170.54 11.87L170.54 11.87L171.12 11.87L171.12 12.41L168.40 12.41ZM172.89 4.79L171.48 8.10L174.22 8.10L172.89 4.79ZM185.81 5.35L185.31 5.33L185.31 5.33Q185.43 4.17 185.51 3.08L185.51 3.08L193.59 3.08L193.59 3.08Q193.51 4.13 193.48 4.53L193.48 4.53L193.48 4.53Q193.44 5.26 193.42 5.32L193.42 5.32L192.92 5.30L192.92 5.30Q193.01 4.34 193.01 4.16L193.01 4.16L193.01 4.16Q193.01 3.88 192.86 3.79L192.86 3.79L192.86 3.79Q192.69 3.69 192.29 3.69L192.29 3.69L190.68 3.69L190.68 3.69Q190.18 3.69 190.05 3.79L190.05 3.79L190.05 3.79Q189.96 3.87 189.95 4.36L189.95 4.36L189.95 11.22L189.95 11.22Q189.95 11.66 190.09 11.76L190.09 11.76L190.09 11.76Q190.25 11.87 190.76 11.87L190.76 11.87L191.32 11.87L191.34 12.41L187.65 12.40L187.65 11.87L187.87 11.87L187.87 11.87Q188.54 11.87 188.68 11.79L188.68 11.79L188.68 11.79Q188.82 11.70 188.82 11.28L188.82 11.28L188.82 4.48L188.82 4.48Q188.82 3.92 188.72 3.80L188.72 3.80L188.72 3.80Q188.62 3.69 188.20 3.69L188.20 3.69L186.73 3.69L186.73 3.69Q186.55 3.69 186.48 3.71L186.48 3.71L186.48 3.71Q186.41 3.72 186.30 3.72L186.30 3.72L186.30 3.72Q186.27 3.72 186.16 3.79L186.16 3.79L186.16 3.79Q186.07 3.84 186.05 3.86L186.05 3.86L186.05 3.86Q186.02 3.88 185.98 3.99L185.98 3.99L185.98 3.99Q185.95 4.05 185.92 4.14L185.92 4.14L185.92 4.14Q185.90 4.21 185.88 4.36L185.88 4.36L185.88 4.36Q185.85 4.59 185.85 4.61L185.85 4.61L185.85 4.61Q185.85 4.80 185.83 4.95L185.83 4.95L185.83 4.95Q185.83 5.02 185.83 5.15L185.83 5.15L185.83 5.15Q185.82 5.29 185.81 5.35L185.81 5.35ZM211.29 3.64L211.05 3.64L211.05 3.08L214.15 3.08L214.14 3.64L213.83 3.64L213.83 3.64Q213.00 3.64 213.00 3.94L213.00 3.94L213.00 3.94Q213.00 4.03 213.04 4.09L213.04 4.09L215.46 10.76L217.77 4.85L217.66 4.57L217.66 4.57Q217.64 4.52 217.62 4.44L217.62 4.44L217.62 4.44Q217.59 4.36 217.57 4.31L217.57 4.31L217.57 4.31Q217.55 4.25 217.54 4.22L217.54 4.22L217.54 4.22Q217.51 4.16 217.42 3.96L217.42 3.96L217.42 3.96Q217.33 3.80 217.22 3.71L217.22 3.71L217.22 3.71Q217.14 3.64 216.97 3.64L216.97 3.64L216.28 3.64L216.28 3.08L219.61 3.08L219.61 3.64L218.87 3.64L218.87 3.64Q218.64 3.64 218.58 3.68L218.58 3.68L218.58 3.68Q218.51 3.72 218.51 3.86L218.51 3.86L218.51 3.86Q218.50 4.00 218.76 4.76L218.76 4.76L220.80 10.72L223.30 4.18L223.30 4.18Q223.35 4.01 223.35 3.94L223.35 3.94L223.35 3.94Q223.35 3.75 223.18 3.69L223.18 3.69L223.18 3.69Q223.02 3.64 222.67 3.64L222.67 3.64L222.30 3.64L222.30 3.08L224.70 3.08L224.71 3.64L224.54 3.64L224.54 3.64Q224.19 3.64 224.10 3.77L224.10 3.77L224.10 3.77Q223.97 3.96 223.73 4.60L223.73 4.60L220.64 12.64L220.40 12.64L218.02 5.64L215.30 12.63L215.08 12.63L212.11 4.52L212.11 4.52Q211.89 3.96 211.73 3.79L211.73 3.79L211.73 3.79Q211.57 3.63 211.29 3.64L211.29 3.64ZM232.81 3.64L232.44 3.64L232.44 3.08L235.93 3.08L235.93 3.64L235.57 3.64L235.57 3.64Q235.06 3.64 234.91 3.75L234.91 3.75L234.91 3.75Q234.77 3.84 234.77 4.25L234.77 4.25L234.77 6.91L239.32 6.91L239.32 4.14L239.32 4.14Q239.32 3.77 239.22 3.71L239.22 3.71L239.22 3.71Q239.11 3.64 238.59 3.64L238.59 3.64L238 3.64L237.99 3.08L241.54 3.08L241.54 3.64L241.15 3.64L241.15 3.64Q240.67 3.64 240.56 3.74L240.56 3.74L240.56 3.74Q240.45 3.83 240.45 4.22L240.45 4.22L240.45 11.29L240.45 11.29Q240.45 11.67 240.59 11.77L240.59 11.77L240.59 11.77Q240.75 11.87 241.29 11.87L241.29 11.87L241.77 11.87L241.75 12.41L238.27 12.41L238.25 11.87L238.66 11.87L238.66 11.87Q239.13 11.87 239.22 11.77L239.22 11.77L239.22 11.77Q239.32 11.67 239.32 11.25L239.32 11.25L239.32 7.58L234.77 7.58L234.77 11.25L234.77 11.25Q234.77 11.67 234.92 11.77L234.92 11.77L234.92 11.77Q235.07 11.87 235.78 11.87L235.78 11.87L236.18 11.87L236.15 12.41L232.57 12.41L232.56 11.87L232.92 11.87L232.92 11.87Q233.47 11.87 233.54 11.80L233.54 11.80L233.54 11.80Q233.63 11.70 233.63 11.25L233.63 11.25L233.63 4.09L233.63 4.09Q233.63 3.76 233.50 3.71L233.50 3.71L233.50 3.71Q233.32 3.64 232.81 3.64L232.81 3.64ZM249.52 12.41L249.50 11.87L249.68 11.87L249.68 11.87Q250.07 11.87 250.20 11.73L250.20 11.73L250.20 11.73Q250.32 11.57 250.65 10.83L250.65 10.83L251.56 8.82L252.14 7.53L252.14 7.53Q252.40 6.97 252.44 6.86L252.44 6.86L252.44 6.86Q252.51 6.70 252.56 6.60L252.56 6.60L252.56 6.60Q252.62 6.51 252.63 6.45L252.63 6.45L252.72 6.21L254.15 2.74L254.45 2.74L254.45 2.74Q255.30 4.98 257.49 10.25L257.49 10.25L257.49 10.25Q257.94 11.34 258.13 11.64L258.13 11.64L258.13 11.64Q258.27 11.87 258.71 11.87L258.71 11.87L258.92 11.87L258.90 12.41L255.71 12.41L255.73 11.87L256.14 11.87L256.14 11.87Q256.76 11.87 256.76 11.70L256.76 11.70L256.76 11.70Q256.76 11.63 256.62 11.27L256.62 11.27L255.58 8.72L252.33 8.72L251.23 11.18L251.23 11.18Q251.09 11.50 251.09 11.63L251.09 11.63L251.09 11.63Q251.09 11.79 251.19 11.83L251.19 11.83L251.19 11.83Q251.28 11.87 251.67 11.87L251.67 11.87L252.24 11.87L252.24 12.41L249.52 12.41ZM254.02 4.79L252.60 8.10L255.34 8.10L254.02 4.79ZM266.93 5.35L266.43 5.33L266.43 5.33Q266.55 4.17 266.64 3.08L266.64 3.08L274.72 3.08L274.72 3.08Q274.63 4.13 274.61 4.53L274.61 4.53L274.61 4.53Q274.57 5.26 274.54 5.32L274.54 5.32L274.05 5.30L274.05 5.30Q274.13 4.34 274.13 4.16L274.13 4.16L274.13 4.16Q274.13 3.88 273.98 3.79L273.98 3.79L273.98 3.79Q273.81 3.69 273.41 3.69L273.41 3.69L271.80 3.69L271.80 3.69Q271.30 3.69 271.17 3.79L271.17 3.79L271.17 3.79Q271.08 3.87 271.07 4.36L271.07 4.36L271.07 11.22L271.07 11.22Q271.07 11.66 271.22 11.76L271.22 11.76L271.22 11.76Q271.37 11.87 271.89 11.87L271.89 11.87L272.45 11.87L272.46 12.41L268.77 12.40L268.77 11.87L268.99 11.87L268.99 11.87Q269.66 11.87 269.80 11.79L269.80 11.79L269.80 11.79Q269.94 11.70 269.94 11.28L269.94 11.28L269.94 4.48L269.94 4.48Q269.94 3.92 269.85 3.80L269.85 3.80L269.85 3.80Q269.75 3.69 269.32 3.69L269.32 3.69L267.85 3.69L267.85 3.69Q267.67 3.69 267.60 3.71L267.60 3.71L267.60 3.71Q267.53 3.72 267.42 3.72L267.42 3.72L267.42 3.72Q267.39 3.72 267.28 3.79L267.28 3.79L267.28 3.79Q267.20 3.84 267.17 3.86L267.17 3.86L267.17 3.86Q267.14 3.88 267.10 3.99L267.10 3.99L267.10 3.99Q267.07 4.05 267.05 4.14L267.05 4.14L267.05 4.14Q267.02 4.21 267.00 4.36L267.00 4.36L267.00 4.36Q266.97 4.59 266.97 4.61L266.97 4.61L266.97 4.61Q266.97 4.80 266.96 4.95L266.96 4.95L266.96 4.95Q266.96 5.02 266.95 5.15L266.95 5.15L266.95 5.15Q266.94 5.29 266.93 5.35L266.93 5.35ZM292.17 3.64L292.17 3.64L292.18 3.08L295.32 3.08L295.32 3.64L295.04 3.64L295.04 3.64Q294.59 3.64 294.48 3.66L294.48 3.66L294.48 3.66Q294.31 3.71 294.31 3.82L294.31 3.82L294.31 3.82Q294.31 3.89 294.56 4.31L294.56 4.31L296.56 7.46L299.01 3.99L299.01 3.99Q299.09 3.83 299.10 3.82L299.10 3.82L299.10 3.82Q299.10 3.64 298.18 3.64L298.18 3.64L297.96 3.64L297.95 3.08L300.49 3.08L300.49 3.64L300.43 3.64L300.43 3.64Q300.08 3.64 299.93 3.72L299.93 3.72L299.93 3.72Q299.78 3.80 299.49 4.22L299.49 4.22L296.76 8.17L296.76 11.22L296.76 11.22Q296.76 11.66 296.87 11.77L296.87 11.77L296.87 11.77Q296.97 11.87 297.58 11.87L297.58 11.87L298.22 11.87L298.20 12.41L294.27 12.41L294.28 11.87L294.84 11.87L294.84 11.87Q295.37 11.87 295.50 11.79L295.50 11.79L295.50 11.79Q295.63 11.70 295.63 11.25L295.63 11.25L295.63 8.06L293.33 4.49L293.33 4.49Q292.91 3.84 292.78 3.73L292.78 3.73L292.78 3.73Q292.67 3.64 292.17 3.64ZM308.62 7.83L308.62 7.83L308.62 7.83Q308.62 6.62 309.02 5.68L309.02 5.68L309.02 5.68Q309.44 4.72 310.13 4.12L310.13 4.12L310.13 4.12Q310.82 3.51 311.68 3.19L311.68 3.19L311.68 3.19Q312.52 2.88 313.47 2.88L313.47 2.88L313.47 2.88Q314.73 2.88 315.78 3.40L315.78 3.40L315.78 3.40Q316.86 3.93 317.57 5.07L317.57 5.07L317.57 5.07Q318.27 6.17 318.27 7.75L318.27 7.75L318.27 7.75Q318.27 8.70 317.97 9.54L317.97 9.54L317.97 9.54Q317.66 10.38 317.05 11.10L317.05 11.10L317.05 11.10Q316.45 11.81 315.51 12.22L315.51 12.22L315.51 12.22Q314.55 12.63 313.36 12.64L313.36 12.64L313.36 12.64Q312.22 12.64 311.29 12.23L311.29 12.23L311.29 12.23Q310.35 11.83 309.79 11.14L309.79 11.14L309.79 11.14Q309.22 10.45 308.92 9.60L308.92 9.60L308.92 9.60Q308.62 8.72 308.62 7.83ZM309.87 7.38L309.87 7.38L309.87 7.38Q309.87 8.52 310.30 9.60L310.30 9.60L310.30 9.60Q310.71 10.64 311.64 11.33L311.64 11.33L311.64 11.33Q312.55 12.03 313.74 12.04L313.74 12.04L313.74 12.04Q315.11 12.04 316.05 11.01L316.05 11.01L316.05 11.01Q317.00 9.97 317.00 8.10L317.00 8.10L317.00 8.10Q317.00 5.99 315.83 4.72L315.83 4.72L315.83 4.72Q314.69 3.46 313.17 3.45L313.17 3.45L313.17 3.45Q312.66 3.45 312.11 3.65L312.11 3.65L312.11 3.65Q311.57 3.85 311.06 4.25L311.06 4.25L311.06 4.25Q310.52 4.68 310.19 5.48L310.19 5.48L310.19 5.48Q309.87 6.27 309.87 7.38ZM326.77 3.64L326.39 3.64L326.39 3.08L329.75 3.08L329.77 3.64L329.23 3.64L329.23 3.64Q328.80 3.64 328.64 3.73L328.64 3.73L328.64 3.73Q328.47 3.83 328.47 4.16L328.47 4.16L328.47 9.33L328.47 9.33Q328.47 9.63 328.51 9.78L328.51 9.78L328.51 9.78Q328.55 10.01 328.71 10.41L328.71 10.41L328.71 10.41Q328.88 10.80 329.18 11.09L329.18 11.09L329.18 11.09Q329.49 11.40 330.05 11.63L330.05 11.63L330.05 11.63Q330.62 11.85 331.40 11.85L331.40 11.85L331.40 11.85Q332.25 11.85 332.80 11.67L332.80 11.67L332.80 11.67Q333.36 11.48 333.67 11.22L333.67 11.22L333.67 11.22Q333.98 10.96 334.12 10.49L334.12 10.49L334.12 10.49Q334.29 9.95 334.30 9.66L334.30 9.66L334.30 9.66Q334.33 9.18 334.33 8.67L334.33 8.67L334.33 4.14L334.33 4.14Q334.33 3.81 334.19 3.72L334.19 3.72L334.19 3.72Q334.04 3.64 333.56 3.64L333.56 3.64L333.07 3.64L333.09 3.08L335.73 3.08L335.73 3.64L335.54 3.64L335.54 3.64Q335.21 3.64 335.10 3.75L335.10 3.75L335.10 3.75Q334.99 3.86 334.99 4.25L334.99 4.25L334.99 9.22L334.99 9.22Q334.99 12.67 331.40 12.67L331.40 12.67L331.40 12.67Q329.23 12.67 328.28 11.76L328.28 11.76L328.28 11.76Q327.35 10.86 327.35 9.41L327.35 9.41L327.35 4.14L327.35 4.14Q327.35 3.81 327.24 3.72L327.24 3.72L327.24 3.72Q327.13 3.64 326.77 3.64L326.77 3.64ZM353.08 3.64L353.04 3.08L356.82 3.08L356.82 3.08Q358.13 3.08 359.00 3.19L359.00 3.19L359.00 3.19Q359.82 3.29 360.51 3.69L360.51 3.69L360.51 3.69Q361.46 4.27 361.97 5.24L361.97 5.24L361.97 5.24Q362.46 6.21 362.46 7.39L362.46 7.39L362.46 7.39Q362.46 8.05 362.32 8.65L362.32 8.65L362.32 8.65Q362.16 9.29 361.77 9.98L361.77 9.98L361.77 9.98Q361.34 10.73 360.78 11.21L360.78 11.21L360.78 11.21Q360.15 11.76 359.18 12.08L359.18 12.08L359.18 12.08Q358.18 12.41 356.90 12.41L356.90 12.41L353.29 12.41L353.27 11.87L353.65 11.87L353.65 11.87Q354.17 11.87 354.27 11.79L354.27 11.79L354.27 11.79Q354.38 11.70 354.38 11.25L354.38 11.25L354.38 4.14L354.38 4.14Q354.38 3.77 354.29 3.71L354.29 3.71L354.29 3.71Q354.18 3.64 353.66 3.64L353.66 3.64L353.08 3.64ZM355.52 4.39L355.52 11.22L355.52 11.22Q355.52 11.67 355.68 11.77L355.68 11.77L355.68 11.77Q355.84 11.87 356.71 11.87L356.71 11.87L356.71 11.87Q357.76 11.87 358.55 11.61L358.55 11.61L358.55 11.61Q359.41 11.35 359.84 10.99L359.84 10.99L359.84 10.99Q360.34 10.58 360.64 10.05L360.64 10.05L360.64 10.05Q360.94 9.52 361.07 8.96L361.07 8.96L361.07 8.96Q361.20 8.41 361.20 7.82L361.20 7.82L361.20 7.82Q361.20 7.03 360.93 6.34L360.93 6.34L360.93 6.34Q360.66 5.65 360.14 5.05L360.14 5.05L360.14 5.05Q359.60 4.46 358.70 4.09L358.70 4.09L358.70 4.09Q357.77 3.73 356.61 3.73L356.61 3.73L356.09 3.73L356.09 3.73Q355.73 3.73 355.63 3.85L355.63 3.85L355.63 3.85Q355.52 3.99 355.52 4.39L355.52 4.39ZM370.82 7.83L370.82 7.83L370.82 7.83Q370.82 6.62 371.22 5.68L371.22 5.68L371.22 5.68Q371.64 4.72 372.33 4.12L372.33 4.12L372.33 4.12Q373.02 3.51 373.88 3.19L373.88 3.19L373.88 3.19Q374.72 2.88 375.67 2.88L375.67 2.88L375.67 2.88Q376.93 2.88 377.98 3.40L377.98 3.40L377.98 3.40Q379.06 3.93 379.77 5.07L379.77 5.07L379.77 5.07Q380.47 6.17 380.47 7.75L380.47 7.75L380.47 7.75Q380.47 8.70 380.17 9.54L380.17 9.54L380.17 9.54Q379.86 10.38 379.25 11.10L379.25 11.10L379.25 11.10Q378.65 11.81 377.71 12.22L377.71 12.22L377.71 12.22Q376.75 12.63 375.56 12.64L375.56 12.64L375.56 12.64Q374.42 12.64 373.49 12.23L373.49 12.23L373.49 12.23Q372.55 11.83 371.99 11.14L371.99 11.14L371.99 11.14Q371.42 10.45 371.12 9.60L371.12 9.60L371.12 9.60Q370.82 8.72 370.82 7.83ZM372.07 7.38L372.07 7.38L372.07 7.38Q372.07 8.52 372.50 9.60L372.50 9.60L372.50 9.60Q372.91 10.64 373.84 11.33L373.84 11.33L373.84 11.33Q374.75 12.03 375.94 12.04L375.94 12.04L375.94 12.04Q377.31 12.04 378.25 11.01L378.25 11.01L378.25 11.01Q379.20 9.97 379.20 8.10L379.20 8.10L379.20 8.10Q379.20 5.99 378.03 4.72L378.03 4.72L378.03 4.72Q376.89 3.46 375.38 3.45L375.38 3.45L375.38 3.45Q374.86 3.45 374.31 3.65L374.31 3.65L374.31 3.65Q373.77 3.85 373.26 4.25L373.26 4.25L373.26 4.25Q372.72 4.68 372.39 5.48L372.39 5.48L372.39 5.48Q372.07 6.27 372.07 7.38Z"></path></g></svg>