<svg data-v-423bf9ae="" xmlns="http://www.w3.org/2000/svg" viewBox="0 0 525 90" class="iconLeftSlogan"><!----><!----><!----><g data-v-423bf9ae="" id="dcad07ac-3104-4d8c-ab6c-2ea08e56d775" fill="#ffffff" transform="matrix(5.628517904206723,0,0,5.628517904206723,103.1332218797377,-21.72608033856332)"><path d="M2.58 10.28L4.02 10.28L6.24 14.35L7.76 14.35L5.38 10.18C6.83 10.00 7.64 8.97 7.64 7.45C7.64 5.66 6.65 4.58 4.82 4.58L1.22 4.58L1.22 14.35L2.58 14.35ZM2.58 9.17L2.58 5.73L4.70 5.73C5.68 5.73 6.22 6.22 6.22 7.11L6.22 7.78C6.22 8.68 5.68 9.17 4.70 9.17ZM12.60 14.49C13.41 14.49 13.72 14.08 13.72 13.58L13.72 13.29C13.72 12.78 13.41 12.39 12.60 12.39C11.79 12.39 11.48 12.78 11.48 13.29L11.48 13.58C11.48 14.08 11.79 14.49 12.60 14.49ZM22.32 14.35L24.14 14.35L24.14 4.58L22.93 4.58L22.93 12.49L22.82 12.49L19.68 4.58L17.86 4.58L17.86 14.35L19.07 14.35L19.07 6.44L19.18 6.44ZM29.40 14.52C31.47 14.52 32.75 13.05 32.75 10.74C32.75 8.43 31.47 6.96 29.40 6.96C27.33 6.96 26.05 8.43 26.05 10.74C26.05 13.05 27.33 14.52 29.40 14.52ZM29.40 13.44C28.21 13.44 27.44 12.73 27.44 11.27L27.44 10.21C27.44 8.75 28.21 8.04 29.40 8.04C30.59 8.04 31.36 8.75 31.36 10.21L31.36 11.27C31.36 12.73 30.59 13.44 29.40 13.44ZM35.01 14.35L36.67 14.35L37.76 8.51L37.87 8.51L38.93 14.35L40.59 14.35L41.64 7.13L40.54 7.13L39.77 13.30L39.65 13.30L38.49 7.13L37.14 7.13L35.99 13.30L35.85 13.30L35.10 7.13L33.96 7.13ZM49.76 14.35L49.76 13.27L48.79 13.27L48.79 9.45C48.79 7.87 47.70 6.96 45.95 6.96C44.45 6.96 43.50 7.64 43.12 8.40L43.95 9.06C44.32 8.41 44.90 8.02 45.85 8.02C46.91 8.02 47.49 8.54 47.49 9.56L47.49 10.21L46.02 10.21C43.86 10.21 42.88 10.96 42.88 12.33C42.88 13.69 43.85 14.52 45.33 14.52C46.49 14.52 47.21 14 47.52 13.16L47.59 13.16C47.67 13.86 48.05 14.35 48.90 14.35ZM45.64 13.50C44.77 13.50 44.23 13.13 44.23 12.43L44.23 12.14C44.23 11.47 44.80 11.10 46.03 11.10L47.49 11.10L47.49 12.22C47.49 12.95 46.72 13.50 45.64 13.50ZM54.87 14.52C56.34 14.52 57.26 13.80 57.69 12.82L56.76 12.21C56.39 12.95 55.80 13.43 54.88 13.43C53.59 13.43 52.89 12.56 52.89 11.35L52.89 10.12C52.89 8.92 53.61 8.05 54.85 8.05C55.72 8.05 56.29 8.48 56.56 9.20L57.58 8.64C57.16 7.64 56.28 6.96 54.85 6.96C52.77 6.96 51.51 8.44 51.51 10.74C51.51 13.03 52.75 14.52 54.87 14.52ZM60.16 14.35L61.46 14.35L61.46 11.76L62.61 10.71L65.28 14.35L66.88 14.35L63.57 9.95L66.53 7.13L64.97 7.13L62.73 9.23L61.53 10.40L61.46 10.40L61.46 3.99L60.16 3.99ZM71.85 5.66C72.55 5.66 72.80 5.32 72.80 4.90L72.80 4.63C72.80 4.20 72.55 3.86 71.85 3.86C71.15 3.86 70.90 4.20 70.90 4.63L70.90 4.90C70.90 5.32 71.15 5.66 71.85 5.66ZM68.66 14.35L74.87 14.35L74.87 13.27L72.49 13.27L72.49 7.13L68.66 7.13L68.66 8.20L71.19 8.20L71.19 13.27L68.66 13.27Z"></path></g><!----><g data-v-423bf9ae="" id="8386bf26-3b73-4966-a01b-eb6739d7d83e" transform="matrix(2.8125,0,0,2.8125,0,0)" stroke="none" fill="#EBC246"><path d="M4.029 14.362L14.362 4.028l.707.707L4.736 15.07zM17.135 27.47L27.47 17.135l.707.707-10.333 10.333zM4.029 17.841l.707-.707 10.333 10.334-.707.707zM17.135 4.735l.708-.707L28.176 14.36l-.707.707z"></path><g><path d="M16 1.414l1.683 1.683L16 4.779l-1.683-1.683L16 1.414M16 0l-3.097 3.097L16 6.194l3.097-3.097L16 0zM16 27.221l1.683 1.683L16 30.586l-1.683-1.683L16 27.221m0-1.415l-3.097 3.097L16 32l3.097-3.097L16 25.806zM3.097 14.317L4.779 16l-1.683 1.683L1.414 16l1.683-1.683m0-1.414L0 16l3.097 3.097L6.194 16l-3.097-3.097zM28.903 14.317L30.586 16l-1.683 1.683L27.221 16l1.682-1.683m0-1.414L25.806 16l3.097 3.097L32 16l-3.097-3.097z"></path></g></g><!----><g data-v-423bf9ae="" id="7a996c93-4982-48a6-9390-9d7c66403747" fill="#ffffff" transform="matrix(1.0593926422635516,0,0,1.0593926422635516,99.21538090634269,56.92776076196206)"><path d="M10.18 12.39C10.18 12.63 10.22 12.68 10.42 12.68C10.74 12.68 11.49 12.64 12.21 12.64C12.87 12.64 13.66 12.68 13.89 12.68C14.06 12.68 14.08 12.61 14.08 12.40C14.08 12.24 14.06 12.18 13.89 12.18L12.92 12.18C12.82 12.18 12.80 9.55 12.80 7.76L12.80 5.87C12.80 5.14 12.82 3.70 12.92 3.70L13.83 3.70C14.06 3.70 14.08 3.68 14.08 3.49C14.08 3.25 14.06 3.19 13.89 3.19C13.57 3.19 12.89 3.23 12.24 3.23C11.42 3.23 10.71 3.19 10.49 3.19C10.30 3.19 10.23 3.21 10.23 3.44C10.23 3.68 10.32 3.70 10.49 3.70L11.41 3.70C11.45 3.70 11.52 4.79 11.52 5.71L11.52 7.08C11.52 8.92 11.51 12.18 11.40 12.18L10.47 12.18C10.25 12.18 10.18 12.19 10.18 12.39ZM21.98 12.39C21.98 12.63 21.99 12.68 22.19 12.68C22.37 12.68 22.75 12.64 23.37 12.64C24.00 12.64 24.56 12.68 24.88 12.68C25.05 12.68 25.05 12.61 25.05 12.40C25.05 12.24 25.05 12.18 24.88 12.18L23.67 12.18C23.63 12.18 23.62 11.54 23.62 10.79C23.62 9.46 23.63 7.48 23.63 5.99C23.63 5.25 23.63 4.84 23.65 4.28C23.65 4.02 23.72 4.14 23.84 4.28L30.73 12.66C30.81 12.75 30.90 12.89 31.01 12.89C31.12 12.89 31.19 12.77 31.19 12.54C31.19 12.39 31.36 6.65 31.37 4.48C31.37 4.06 31.40 3.70 31.43 3.70L32.06 3.70C32.28 3.70 32.34 3.68 32.34 3.49C32.34 3.25 32.34 3.19 32.14 3.19C31.95 3.19 31.51 3.23 30.95 3.23C30.34 3.23 29.54 3.19 29.44 3.19C29.27 3.19 29.27 3.26 29.27 3.47C29.27 3.64 29.27 3.70 29.44 3.70L30.74 3.70C30.76 3.70 30.76 4.33 30.76 4.44C30.76 5.85 30.79 8.33 30.79 9.70L30.79 10.29C30.79 10.57 30.77 10.65 30.55 10.37L24.86 3.39C24.75 3.25 24.72 3.19 24.56 3.19C24.47 3.19 24.09 3.23 23.79 3.23C23.49 3.23 22.41 3.19 22.22 3.19C22.05 3.19 22.02 3.26 22.02 3.47C22.02 3.64 22.05 3.70 22.22 3.70L23.13 3.70C23.13 4.17 23.09 8.53 23.02 10.79C22.99 11.69 23.00 12.18 22.89 12.18L22.25 12.18C22.02 12.18 21.98 12.19 21.98 12.39ZM50.18 12.39C50.18 12.63 50.20 12.68 50.40 12.68C50.72 12.68 51.69 12.64 52.11 12.64C52.53 12.64 56.88 12.68 57.20 12.68C57.47 12.68 57.54 12.66 57.55 12.49C57.61 12.08 57.85 10.72 57.85 10.60C57.85 10.47 57.69 10.44 57.53 10.43C57.43 10.42 57.34 10.46 57.33 10.56L57.16 11.76C57.12 12.05 57.11 12.03 56.88 12.04C56.73 12.05 54.22 12.12 52.79 12.12C52.75 12.12 52.71 11.38 52.71 10.54L52.71 6.66C52.71 5.40 52.72 3.70 52.82 3.70L53.80 3.70C54.04 3.70 54.07 3.63 54.07 3.44C54.07 3.23 54.05 3.19 53.82 3.19C53.49 3.19 52.56 3.23 52.14 3.23C51.72 3.23 50.78 3.19 50.55 3.19C50.33 3.19 50.27 3.22 50.27 3.44C50.27 3.65 50.32 3.70 50.51 3.70L51.34 3.70C51.38 3.70 51.41 4.23 51.41 4.90L51.41 8.13C51.41 10.07 51.38 12.18 51.30 12.18L50.46 12.18C50.23 12.18 50.18 12.21 50.18 12.39ZM65.39 8.15C65.39 11.17 67.73 12.80 69.99 12.80C72.77 12.80 74.75 10.89 74.75 8.06C74.75 5.33 73.00 3.11 70.20 3.11C67.59 3.11 65.39 5.10 65.39 8.15ZM66.79 7.77C66.79 5.64 68.08 3.58 70.06 3.58C72.30 3.58 73.37 5.81 73.37 7.94C73.37 10.08 72.27 12.32 70 12.32C68.01 12.32 66.79 10.28 66.79 7.77ZM82.01 3.51C82.01 3.75 82.11 3.77 82.28 3.77L82.71 3.77C82.80 3.77 85.58 10.99 85.62 11.07C86.11 12.18 86.21 12.99 86.42 12.99C86.69 12.99 86.74 12.67 87.02 12.26C87.18 12.04 87.26 12.01 87.42 11.66L90.65 4.06C90.76 3.81 90.75 3.77 91.11 3.77C91.34 3.77 91.41 3.75 91.41 3.56C91.41 3.32 91.36 3.26 91.17 3.26C91.03 3.26 90.50 3.30 90.08 3.30C89.66 3.30 88.83 3.26 88.61 3.26C88.41 3.26 88.35 3.29 88.35 3.51C88.35 3.75 88.48 3.77 88.65 3.77L89.64 3.77C89.71 3.77 89.73 3.81 89.73 3.95C89.73 4.63 88.05 8.72 87.32 10.63C87.18 10.99 87.09 11.17 87.05 11.17C87.01 11.17 86.91 10.98 86.77 10.60C86.20 9.10 85.06 6.01 84.55 4.49C84.46 4.27 84.38 3.93 84.38 3.79L84.38 3.77L85.36 3.77C85.58 3.77 85.65 3.75 85.65 3.56C85.65 3.32 85.61 3.26 85.41 3.26C85.09 3.26 84.01 3.30 83.59 3.30C83.17 3.30 82.46 3.26 82.28 3.26C82.10 3.26 82.01 3.28 82.01 3.51ZM99.02 12.39C99.02 12.63 99.05 12.68 99.25 12.68C99.57 12.68 100.53 12.64 100.95 12.64C101.37 12.64 105.88 12.68 106.20 12.68C106.33 12.68 106.48 12.66 106.48 12.49C106.48 12.07 106.53 11.23 106.53 10.53C106.53 10.39 106.37 10.39 106.25 10.39C106.13 10.39 106.01 10.39 106.01 10.51C105.99 11.06 105.99 11.41 105.97 11.76C105.94 12.01 105.94 12.04 105.84 12.04C105.69 12.04 103.05 12.08 101.56 12.08C101.49 12.08 101.44 10.11 101.40 8.26C101.40 8.06 101.44 8.09 101.58 8.09L103.87 8.09C104.57 8.09 104.59 8.20 104.59 8.30L104.59 9.00C104.59 9.14 104.78 9.14 104.89 9.14C104.99 9.14 105.11 9.13 105.11 9.02C105.11 8.83 105.08 8.33 105.08 7.83C105.08 7.32 105.11 6.83 105.11 6.71C105.11 6.59 104.97 6.58 104.87 6.58C104.76 6.58 104.59 6.59 104.59 6.72L104.59 7.45C104.59 7.62 104.15 7.63 103.87 7.63L101.53 7.63C101.42 7.63 101.40 7.63 101.40 7.45C101.39 6.75 101.37 6.06 101.37 5.46C101.37 5.12 101.37 3.71 101.46 3.71C102.69 3.71 105.20 3.75 105.20 3.81C105.20 3.99 105.15 4.83 105.15 4.89C105.15 5.04 105.22 5.10 105.41 5.10C105.60 5.10 105.67 5.08 105.67 4.94C105.67 3.85 105.73 3.36 105.73 3.09C105.73 2.91 105.64 2.90 105.45 2.90C105.25 2.90 105.25 2.95 105.22 3.11C105.21 3.25 105.28 3.25 104.37 3.25C103.75 3.25 101.61 3.29 100.84 3.29C100.35 3.29 99.41 3.25 99.32 3.25C99.19 3.25 99.13 3.30 99.13 3.49C99.13 3.72 99.20 3.74 99.37 3.74L100.03 3.74C100.09 3.74 100.16 4.79 100.16 5.71C100.16 5.80 100.21 8.27 100.21 9.83L100.21 11.17C100.21 11.84 100.18 12.18 100.16 12.18L99.30 12.18C99.08 12.18 99.02 12.21 99.02 12.39ZM123.87 3.51C123.87 3.75 123.98 3.77 124.15 3.77L124.66 3.77C124.74 3.77 126.88 10.99 126.91 11.07C127.26 12.14 127.37 12.99 127.68 12.99C127.90 12.99 128.00 12.67 128.28 12.26C128.44 12.05 128.53 12.01 128.67 11.66L130.66 6.45C130.73 6.29 130.76 6.20 130.79 6.20C130.82 6.20 130.84 6.29 130.89 6.45C131.49 8.51 132.16 11.03 132.17 11.07C132.52 12.14 132.64 12.99 132.94 12.99C133.17 12.99 133.27 12.67 133.55 12.26C133.70 12.05 133.80 12.01 133.94 11.66L137.03 4.06C137.13 3.81 137.13 3.77 137.49 3.77C137.73 3.77 137.79 3.71 137.79 3.53C137.79 3.32 137.75 3.26 137.55 3.26C137.41 3.26 137.10 3.30 136.60 3.30C135.86 3.30 135.35 3.26 135.16 3.26C134.97 3.26 134.88 3.28 134.88 3.51C134.88 3.75 134.99 3.77 135.16 3.77L136.07 3.77C136.14 3.77 136.15 3.81 136.15 3.95C136.15 4.63 134.55 8.72 133.84 10.63C133.70 10.99 133.63 11.17 133.59 11.17C133.53 11.17 133.48 10.99 133.35 10.60C133.27 10.30 132.34 7.18 131.81 5.22C131.77 5.05 131.56 4.17 131.56 3.85C131.56 3.81 131.56 3.79 131.57 3.77L132.45 3.77C132.64 3.77 132.73 3.75 132.73 3.56C132.73 3.32 132.69 3.26 132.50 3.26C132.17 3.26 131.24 3.30 130.82 3.30C130.40 3.30 129.49 3.26 129.26 3.26C129.08 3.26 128.98 3.28 128.98 3.51C128.98 3.75 129.09 3.77 129.26 3.77L130.06 3.77C130.10 3.77 130.28 4.27 130.44 4.83C130.49 5.05 130.54 5.15 130.54 5.25C130.54 5.31 130.54 5.38 130.49 5.49L128.49 10.60C128.39 10.82 128.37 10.95 128.32 10.95C128.28 10.95 128.25 10.84 128.17 10.60C128.09 10.32 127.08 7.27 126.48 5.22C126.43 5.08 126.11 3.96 126.10 3.85C126.11 3.77 126.15 3.77 126.20 3.77L126.90 3.77C127.12 3.77 127.19 3.75 127.19 3.56C127.19 3.32 127.15 3.26 126.95 3.26C126.63 3.26 125.92 3.30 125.50 3.30C125.08 3.30 124.38 3.26 124.15 3.26C123.97 3.26 123.87 3.28 123.87 3.51ZM145.26 12.39C145.26 12.63 145.31 12.68 145.50 12.68C145.82 12.68 146.58 12.64 147.29 12.64C147.95 12.64 148.75 12.68 148.97 12.68C149.14 12.68 149.17 12.61 149.17 12.40C149.17 12.24 149.14 12.18 148.97 12.18L148.01 12.18C147.91 12.18 147.88 9.55 147.88 7.76L147.88 5.87C147.88 5.14 147.91 3.70 148.01 3.70L148.92 3.70C149.14 3.70 149.17 3.68 149.17 3.49C149.17 3.25 149.14 3.19 148.97 3.19C148.65 3.19 147.98 3.23 147.32 3.23C146.51 3.23 145.80 3.19 145.57 3.19C145.39 3.19 145.32 3.21 145.32 3.44C145.32 3.68 145.40 3.70 145.57 3.70L146.50 3.70C146.54 3.70 146.61 4.79 146.61 5.71L146.61 7.08C146.61 8.92 146.59 12.18 146.48 12.18L145.56 12.18C145.33 12.18 145.26 12.19 145.26 12.39ZM156.80 5.01C156.80 5.17 156.98 5.17 157.11 5.17C157.26 5.17 157.30 5.15 157.32 4.97L157.43 3.89C157.44 3.81 157.99 3.75 158.75 3.75L160.73 3.75C160.79 3.75 160.82 4.35 160.82 4.97C160.82 6.43 160.76 12.18 160.64 12.18L159.77 12.18C159.54 12.18 159.50 12.19 159.50 12.39C159.50 12.63 159.52 12.68 159.71 12.68C160.03 12.68 161.01 12.64 161.43 12.64C161.85 12.64 162.79 12.68 163.11 12.68C163.28 12.68 163.31 12.61 163.31 12.40C163.31 12.24 163.28 12.18 163.11 12.18L162.12 12.18C162.09 12.18 162.09 11.76 162.09 11.31C162.09 9.56 162.18 5.96 162.18 5.92C162.19 5.18 162.19 3.75 162.29 3.75L163.90 3.75C164.61 3.75 165.44 3.78 165.44 3.85C165.44 3.99 165.40 4.90 165.40 4.97C165.40 5.12 165.47 5.17 165.65 5.17C165.84 5.17 165.91 5.17 165.91 5.03C165.91 3.93 165.97 3.40 165.97 3.14C165.97 2.94 165.89 2.94 165.69 2.94C165.54 2.94 165.48 2.98 165.47 3.16C165.47 3.23 164.82 3.28 163.98 3.28L158.98 3.28C158.33 3.28 157.51 3.28 157.51 3.21L157.51 3.07C157.51 2.94 157.39 2.94 157.29 2.94C157.07 2.94 157.04 3.00 157.02 3.19C156.97 3.89 156.80 4.97 156.80 5.01ZM173.73 12.39C173.73 12.63 173.73 12.68 173.92 12.68C174.24 12.68 175.18 12.64 175.60 12.64C176.02 12.64 176.85 12.68 177.17 12.68C177.34 12.68 177.34 12.61 177.34 12.40C177.34 12.24 177.34 12.18 177.17 12.18L176.25 12.18C176.16 12.18 176.12 9.93 176.12 8.20C176.12 8.01 176.12 8.01 176.25 8.01L181.48 8.01C181.55 8.01 181.57 8.01 181.57 8.18L181.57 9.91C181.57 11.05 181.55 12.18 181.50 12.18L180.73 12.18C180.50 12.18 180.46 12.19 180.46 12.39C180.46 12.63 180.47 12.68 180.67 12.68C180.99 12.68 181.83 12.64 182.25 12.64C182.67 12.64 183.26 12.68 183.58 12.68C183.75 12.68 183.76 12.61 183.76 12.40C183.76 12.24 183.75 12.18 183.58 12.18L182.84 12.18C182.80 12.18 182.78 9.27 182.78 7.04C182.78 5.40 182.78 3.70 182.83 3.70L183.44 3.70C183.67 3.70 183.71 3.68 183.71 3.49C183.71 3.25 183.69 3.19 183.50 3.19C183.36 3.19 182.73 3.23 182.14 3.23C181.47 3.23 180.87 3.19 180.64 3.19C180.45 3.19 180.42 3.22 180.42 3.44C180.42 3.67 180.49 3.70 180.66 3.70L181.45 3.70C181.51 3.70 181.57 4.79 181.57 5.71L181.57 7.42C181.57 7.59 181.57 7.59 181.40 7.59L176.29 7.59C176.12 7.59 176.12 7.59 176.12 7.38C176.12 6.96 176.11 6.23 176.11 5.53C176.11 4.66 176.12 3.70 176.18 3.70L176.95 3.70C177.17 3.70 177.21 3.68 177.21 3.49C177.21 3.25 177.20 3.19 177.00 3.19C176.68 3.19 176.09 3.23 175.49 3.23C174.90 3.23 174.41 3.19 174.19 3.19C174.01 3.19 173.91 3.21 173.91 3.44C173.91 3.68 174.02 3.70 174.19 3.70L174.80 3.70C174.86 3.70 174.87 5.59 174.87 7.18L174.87 8.61C174.87 10.08 174.86 12.18 174.79 12.18L173.98 12.18C173.75 12.18 173.73 12.19 173.73 12.39ZM201.60 12.39C201.60 12.63 201.63 12.68 201.82 12.68C202.15 12.68 203.11 12.64 203.53 12.64C203.95 12.64 208.31 12.68 208.63 12.68C208.89 12.68 208.96 12.66 208.98 12.49C209.03 12.08 209.27 10.72 209.27 10.60C209.27 10.47 209.12 10.44 208.95 10.43C208.85 10.42 208.77 10.46 208.75 10.56L208.59 11.76C208.54 12.05 208.53 12.03 208.31 12.04C208.15 12.05 205.65 12.12 204.22 12.12C204.18 12.12 204.13 11.38 204.13 10.54L204.13 6.66C204.13 5.40 204.15 3.70 204.25 3.70L205.23 3.70C205.46 3.70 205.49 3.63 205.49 3.44C205.49 3.23 205.48 3.19 205.24 3.19C204.92 3.19 203.98 3.23 203.56 3.23C203.14 3.23 202.20 3.19 201.98 3.19C201.75 3.19 201.70 3.22 201.70 3.44C201.70 3.65 201.74 3.70 201.94 3.70L202.76 3.70C202.80 3.70 202.83 4.23 202.83 4.90L202.83 8.13C202.83 10.07 202.80 12.18 202.72 12.18L201.88 12.18C201.66 12.18 201.60 12.21 201.60 12.39ZM216.89 12.39C216.89 12.63 216.92 12.68 217.11 12.68C217.43 12.68 218.40 12.64 218.82 12.64C219.24 12.64 223.75 12.68 224.07 12.68C224.20 12.68 224.35 12.66 224.35 12.49C224.35 12.07 224.39 11.23 224.39 10.53C224.39 10.39 224.24 10.39 224.11 10.39C224.00 10.39 223.87 10.39 223.87 10.51C223.86 11.06 223.86 11.41 223.83 11.76C223.80 12.01 223.80 12.04 223.71 12.04C223.55 12.04 220.92 12.08 219.42 12.08C219.35 12.08 219.31 10.11 219.27 8.26C219.27 8.06 219.31 8.09 219.45 8.09L221.73 8.09C222.43 8.09 222.46 8.20 222.46 8.30L222.46 9.00C222.46 9.14 222.64 9.14 222.75 9.14C222.85 9.14 222.98 9.13 222.98 9.02C222.98 8.83 222.95 8.33 222.95 7.83C222.95 7.32 222.98 6.83 222.98 6.71C222.98 6.59 222.84 6.58 222.74 6.58C222.63 6.58 222.46 6.59 222.46 6.72L222.46 7.45C222.46 7.62 222.01 7.63 221.73 7.63L219.39 7.63C219.28 7.63 219.27 7.63 219.27 7.45C219.25 6.75 219.24 6.06 219.24 5.46C219.24 5.12 219.24 3.71 219.32 3.71C220.56 3.71 223.06 3.75 223.06 3.81C223.06 3.99 223.02 4.83 223.02 4.89C223.02 5.04 223.09 5.10 223.27 5.10C223.47 5.10 223.54 5.08 223.54 4.94C223.54 3.85 223.59 3.36 223.59 3.09C223.59 2.91 223.51 2.90 223.31 2.90C223.12 2.90 223.12 2.95 223.09 3.11C223.08 3.25 223.15 3.25 222.24 3.25C221.62 3.25 219.48 3.29 218.71 3.29C218.22 3.29 217.28 3.25 217.18 3.25C217.06 3.25 217.00 3.30 217.00 3.49C217.00 3.72 217.07 3.74 217.24 3.74L217.90 3.74C217.95 3.74 218.02 4.79 218.02 5.71C218.02 5.80 218.08 8.27 218.08 9.83L218.08 11.17C218.08 11.84 218.05 12.18 218.02 12.18L217.17 12.18C216.94 12.18 216.89 12.21 216.89 12.39ZM232.22 12.39C232.22 12.63 232.22 12.68 232.41 12.68C232.58 12.68 232.90 12.64 233.48 12.64C234.09 12.64 234.64 12.68 234.79 12.68C234.96 12.68 234.96 12.61 234.96 12.40C234.96 12.24 234.96 12.18 234.79 12.18L233.72 12.18C233.72 12.18 233.70 12.18 233.70 12.17C233.72 11.87 234.49 9.90 234.84 9.02C234.91 8.83 234.92 8.79 235.13 8.79L237.96 8.79C238.10 8.79 238.10 8.81 238.17 9.03C238.43 9.77 239.15 11.89 239.15 12.17C239.15 12.18 239.13 12.18 239.13 12.18L238.36 12.18C238.14 12.18 238.13 12.19 238.13 12.39C238.13 12.63 238.14 12.68 238.31 12.68C238.63 12.68 239.50 12.64 239.92 12.64C240.34 12.64 241.01 12.68 241.22 12.68C241.36 12.68 241.37 12.61 241.37 12.40C241.37 12.24 241.36 12.18 241.22 12.18L240.73 12.18C240.63 12.18 239.61 9.34 239.05 7.78L237.37 3.07C237.36 3.00 237.29 2.94 237.20 2.94C237.08 2.94 236.98 3.16 236.89 3.35C236.74 3.71 236.50 3.84 236.39 4.13L234.91 7.57C234.72 8.01 233.02 12.18 232.89 12.18L232.47 12.18C232.25 12.18 232.22 12.19 232.22 12.39ZM235.12 8.33C235.12 8.30 235.14 8.23 235.19 8.13L236.56 4.77C236.60 4.66 236.63 4.61 236.66 4.61C236.67 4.61 236.68 4.63 236.73 4.77L237.89 8.18C237.92 8.25 237.93 8.29 237.93 8.32C237.93 8.36 237.90 8.37 237.80 8.37L235.30 8.37C235.12 8.37 235.12 8.34 235.12 8.33ZM249.13 3.51C249.13 3.72 249.20 3.79 249.40 3.79L250.21 3.77C250.31 3.77 250.35 6.61 250.35 8.55L250.35 10.42C250.35 11.30 250.33 12.18 250.29 12.18L249.69 12.18C249.47 12.18 249.40 12.19 249.40 12.39C249.40 12.63 249.44 12.68 249.63 12.68C249.76 12.68 250.59 12.64 251.01 12.64C251.43 12.64 252.20 12.68 252.52 12.68C252.69 12.68 252.71 12.61 252.71 12.40C252.71 12.24 252.69 12.18 252.52 12.18L251.71 12.18C251.64 12.18 251.55 9.18 251.55 8.37C251.55 8.30 251.55 8.26 251.66 8.26C252.06 8.26 252.66 8.27 252.95 8.27C255.19 8.32 255.33 10.00 255.33 11.68L255.33 12.49C255.33 12.61 255.39 12.64 255.49 12.64C255.49 12.64 256.93 12.68 257.40 12.68C257.57 12.68 257.63 12.64 257.63 12.53C257.63 12.24 257.57 12.18 257.42 12.18L256.77 12.18C256.68 12.18 256.65 12.14 256.62 11.31C256.54 8.99 255.16 8.34 254.25 8.05C254.11 8.01 254.14 8.01 254.25 7.95C254.84 7.69 256.16 6.94 256.16 5.63C256.16 3.63 254.46 3.21 253.06 3.21C252.74 3.21 251.45 3.29 251.03 3.29C250.61 3.29 249.63 3.26 249.41 3.26C249.23 3.26 249.13 3.28 249.13 3.51ZM251.55 7.80L251.55 4.40C251.55 4.05 251.58 3.68 251.62 3.68C251.83 3.65 252.11 3.65 252.34 3.65C253.64 3.65 254.88 4.47 254.88 5.82C254.88 6.99 254.34 7.57 253.68 7.88C253.64 7.90 253.60 7.90 253.53 7.90C253.05 7.88 252.34 7.88 251.73 7.87C251.57 7.87 251.55 7.85 251.55 7.80ZM265.10 12.39C265.10 12.63 265.12 12.68 265.31 12.68C265.50 12.68 265.87 12.64 266.49 12.64C267.12 12.64 267.68 12.68 268.00 12.68C268.17 12.68 268.17 12.61 268.17 12.40C268.17 12.24 268.17 12.18 268.00 12.18L266.80 12.18C266.76 12.18 266.74 11.54 266.74 10.79C266.74 9.46 266.76 7.48 266.76 5.99C266.76 5.25 266.76 4.84 266.77 4.28C266.77 4.02 266.84 4.14 266.97 4.28L273.85 12.66C273.94 12.75 274.02 12.89 274.13 12.89C274.25 12.89 274.32 12.77 274.32 12.54C274.32 12.39 274.48 6.65 274.50 4.48C274.50 4.06 274.53 3.70 274.55 3.70L275.18 3.70C275.41 3.70 275.46 3.68 275.46 3.49C275.46 3.25 275.46 3.19 275.27 3.19C275.07 3.19 274.64 3.23 274.08 3.23C273.46 3.23 272.66 3.19 272.57 3.19C272.40 3.19 272.40 3.26 272.40 3.47C272.40 3.64 272.40 3.70 272.57 3.70L273.87 3.70C273.88 3.70 273.88 4.33 273.88 4.44C273.88 5.85 273.91 8.33 273.91 9.70L273.91 10.29C273.91 10.57 273.90 10.65 273.67 10.37L267.99 3.39C267.88 3.25 267.85 3.19 267.68 3.19C267.60 3.19 267.22 3.23 266.91 3.23C266.62 3.23 265.54 3.19 265.34 3.19C265.17 3.19 265.15 3.26 265.15 3.47C265.15 3.64 265.17 3.70 265.34 3.70L266.25 3.70C266.25 4.17 266.21 8.53 266.14 10.79C266.11 11.69 266.13 12.18 266.01 12.18L265.37 12.18C265.15 12.18 265.10 12.19 265.10 12.39ZM283.36 12.39C283.36 12.63 283.40 12.68 283.60 12.68C283.92 12.68 284.68 12.64 285.39 12.64C286.05 12.64 286.85 12.68 287.07 12.68C287.24 12.68 287.27 12.61 287.27 12.40C287.27 12.24 287.24 12.18 287.07 12.18L286.10 12.18C286.01 12.18 285.98 9.55 285.98 7.76L285.98 5.87C285.98 5.14 286.01 3.70 286.10 3.70L287.01 3.70C287.24 3.70 287.27 3.68 287.27 3.49C287.27 3.25 287.24 3.19 287.07 3.19C286.75 3.19 286.08 3.23 285.42 3.23C284.61 3.23 283.89 3.19 283.67 3.19C283.49 3.19 283.42 3.21 283.42 3.44C283.42 3.68 283.50 3.70 283.67 3.70L284.59 3.70C284.63 3.70 284.70 4.79 284.70 5.71L284.70 7.08C284.70 8.92 284.69 12.18 284.58 12.18L283.65 12.18C283.43 12.18 283.36 12.19 283.36 12.39ZM295.16 12.39C295.16 12.63 295.18 12.68 295.37 12.68C295.55 12.68 295.93 12.64 296.55 12.64C297.18 12.64 297.74 12.68 298.06 12.68C298.23 12.68 298.23 12.61 298.23 12.40C298.23 12.24 298.23 12.18 298.06 12.18L296.86 12.18C296.81 12.18 296.80 11.54 296.80 10.79C296.80 9.46 296.81 7.48 296.81 5.99C296.81 5.25 296.81 4.84 296.83 4.28C296.83 4.02 296.90 4.14 297.02 4.28L303.91 12.66C304.00 12.75 304.08 12.89 304.19 12.89C304.30 12.89 304.37 12.77 304.37 12.54C304.37 12.39 304.54 6.65 304.56 4.48C304.56 4.06 304.58 3.70 304.61 3.70L305.24 3.70C305.47 3.70 305.52 3.68 305.52 3.49C305.52 3.25 305.52 3.19 305.33 3.19C305.13 3.19 304.70 3.23 304.14 3.23C303.52 3.23 302.72 3.19 302.62 3.19C302.46 3.19 302.46 3.26 302.46 3.47C302.46 3.64 302.46 3.70 302.62 3.70L303.93 3.70C303.94 3.70 303.94 4.33 303.94 4.44C303.94 5.85 303.97 8.33 303.97 9.70L303.97 10.29C303.97 10.57 303.95 10.65 303.73 10.37L298.05 3.39C297.93 3.25 297.91 3.19 297.74 3.19C297.65 3.19 297.28 3.23 296.97 3.23C296.67 3.23 295.60 3.19 295.40 3.19C295.23 3.19 295.20 3.26 295.20 3.47C295.20 3.64 295.23 3.70 295.40 3.70L296.31 3.70C296.31 4.17 296.27 8.53 296.20 10.79C296.17 11.69 296.18 12.18 296.07 12.18L295.43 12.18C295.20 12.18 295.16 12.19 295.16 12.39ZM313.63 7.91C313.63 11.40 315.99 12.89 318.58 12.89C320.47 12.89 322.48 11.89 322.48 11.58C322.48 11.12 322.49 10.68 322.49 10.33C322.49 9.81 322.50 9.56 322.63 9.56L323.06 9.56C323.20 9.56 323.22 9.39 323.22 9.30C323.22 9.18 323.20 9.06 323.06 9.06C322.84 9.06 322.48 9.10 321.80 9.10C321.36 9.10 320.61 9.07 319.93 9.06C319.79 9.06 319.79 9.24 319.79 9.35C319.79 9.45 319.82 9.56 319.94 9.56L321.16 9.56C321.20 9.56 321.26 9.87 321.26 10.33C321.26 10.82 321.24 11.41 321.22 11.65C321.20 11.76 320.56 12.39 318.98 12.39C316.74 12.39 315.14 10.29 315.14 7.94C315.14 5.42 316.69 3.54 318.70 3.54C320.59 3.54 321.76 4.87 321.76 5.03C321.76 5.15 321.71 6.12 321.71 6.17C321.71 6.31 321.75 6.36 322.01 6.36C322.21 6.36 322.28 6.33 322.28 6.15C322.28 5.43 322.32 3.75 322.32 3.56C322.32 3.36 322.22 3.33 322.01 3.33C321.79 3.33 321.76 3.39 321.76 3.56L321.76 3.91C321.76 3.99 321.72 4.02 321.59 3.92C321.31 3.72 320.32 3.08 318.75 3.08C315.91 3.08 313.63 4.79 313.63 7.91Z"></path></g></svg>