<svg data-v-423bf9ae="" xmlns="http://www.w3.org/2000/svg" viewBox="0 0 414.5403522332619 60" class="font"><!----><!----><!----><g data-v-423bf9ae="" id="3adb6888-c8c4-4dba-ad22-44970becb27a" fill="black" transform="matrix(5.628517904206723,0,0,5.628517904206723,-6.866793379051359,-21.72608033856332)"><path d="M2.58 10.28L4.02 10.28L6.24 14.35L7.76 14.35L5.38 10.18C6.83 10.00 7.64 8.97 7.64 7.45C7.64 5.66 6.65 4.58 4.82 4.58L1.22 4.58L1.22 14.35L2.58 14.35ZM2.58 9.17L2.58 5.73L4.70 5.73C5.68 5.73 6.22 6.22 6.22 7.11L6.22 7.78C6.22 8.68 5.68 9.17 4.70 9.17ZM12.60 14.49C13.41 14.49 13.72 14.08 13.72 13.58L13.72 13.29C13.72 12.78 13.41 12.39 12.60 12.39C11.79 12.39 11.48 12.78 11.48 13.29L11.48 13.58C11.48 14.08 11.79 14.49 12.60 14.49ZM22.32 14.35L24.14 14.35L24.14 4.58L22.93 4.58L22.93 12.49L22.82 12.49L19.68 4.58L17.86 4.58L17.86 14.35L19.07 14.35L19.07 6.44L19.18 6.44ZM29.40 14.52C31.47 14.52 32.75 13.05 32.75 10.74C32.75 8.43 31.47 6.96 29.40 6.96C27.33 6.96 26.05 8.43 26.05 10.74C26.05 13.05 27.33 14.52 29.40 14.52ZM29.40 13.44C28.21 13.44 27.44 12.73 27.44 11.27L27.44 10.21C27.44 8.75 28.21 8.04 29.40 8.04C30.59 8.04 31.36 8.75 31.36 10.21L31.36 11.27C31.36 12.73 30.59 13.44 29.40 13.44ZM35.01 14.35L36.67 14.35L37.76 8.51L37.87 8.51L38.93 14.35L40.59 14.35L41.64 7.13L40.54 7.13L39.77 13.30L39.65 13.30L38.49 7.13L37.14 7.13L35.99 13.30L35.85 13.30L35.10 7.13L33.96 7.13ZM49.76 14.35L49.76 13.27L48.79 13.27L48.79 9.45C48.79 7.87 47.70 6.96 45.95 6.96C44.45 6.96 43.50 7.64 43.12 8.40L43.95 9.06C44.32 8.41 44.90 8.02 45.85 8.02C46.91 8.02 47.49 8.54 47.49 9.56L47.49 10.21L46.02 10.21C43.86 10.21 42.88 10.96 42.88 12.33C42.88 13.69 43.85 14.52 45.33 14.52C46.49 14.52 47.21 14 47.52 13.16L47.59 13.16C47.67 13.86 48.05 14.35 48.90 14.35ZM45.64 13.50C44.77 13.50 44.23 13.13 44.23 12.43L44.23 12.14C44.23 11.47 44.80 11.10 46.03 11.10L47.49 11.10L47.49 12.22C47.49 12.95 46.72 13.50 45.64 13.50ZM54.87 14.52C56.34 14.52 57.26 13.80 57.69 12.82L56.76 12.21C56.39 12.95 55.80 13.43 54.88 13.43C53.59 13.43 52.89 12.56 52.89 11.35L52.89 10.12C52.89 8.92 53.61 8.05 54.85 8.05C55.72 8.05 56.29 8.48 56.56 9.20L57.58 8.64C57.16 7.64 56.28 6.96 54.85 6.96C52.77 6.96 51.51 8.44 51.51 10.74C51.51 13.03 52.75 14.52 54.87 14.52ZM60.16 14.35L61.46 14.35L61.46 11.76L62.61 10.71L65.28 14.35L66.88 14.35L63.57 9.95L66.53 7.13L64.97 7.13L62.73 9.23L61.53 10.40L61.46 10.40L61.46 3.99L60.16 3.99ZM71.85 5.66C72.55 5.66 72.80 5.32 72.80 4.90L72.80 4.63C72.80 4.20 72.55 3.86 71.85 3.86C71.15 3.86 70.90 4.20 70.90 4.63L70.90 4.90C70.90 5.32 71.15 5.66 71.85 5.66ZM68.66 14.35L74.87 14.35L74.87 13.27L72.49 13.27L72.49 7.13L68.66 7.13L68.66 8.20L71.19 8.20L71.19 13.27L68.66 13.27Z"></path></g><!----><!----></svg>